<?xml version="1.0" encoding="UTF-8" standalone="no"?>
<svg
   xmlns:dc="http://purl.org/dc/elements/1.1/"
   xmlns:cc="http://creativecommons.org/ns#"
   xmlns:rdf="http://www.w3.org/1999/02/22-rdf-syntax-ns#"
   xmlns:svg="http://www.w3.org/2000/svg"
   xmlns="http://www.w3.org/2000/svg"
   viewBox="0 0 500 625"
   height="625"
   width="500"
   xml:space="preserve"
   version="1.1"
   id="svg2"><metadata
     id="metadata8"><rdf:RDF><cc:Work
         rdf:about=""><dc:format>image/svg+xml</dc:format><dc:type
           rdf:resource="http://purl.org/dc/dcmitype/StillImage" /></cc:Work></rdf:RDF></metadata><defs
     id="defs6" /><g
     transform="matrix(1.25,0,0,-1.25,0,625)"
     id="g10"><g
       id="g12"><path
         id="path14"
         style="fill:none;stroke:#666666;stroke-width:0.5;stroke-linecap:butt;stroke-linejoin:miter;stroke-miterlimit:4;stroke-dasharray:none;stroke-opacity:0.10196102"
         d="m 73.039,476.379 0,-427.203" /><path
         id="path16"
         style="fill:none;stroke:#666666;stroke-width:0.5;stroke-linecap:butt;stroke-linejoin:miter;stroke-miterlimit:4;stroke-dasharray:none;stroke-opacity:0.10196102"
         d="m 116.109,476.379 0,-427.203" /><path
         id="path18"
         style="fill:none;stroke:#666666;stroke-width:0.5;stroke-linecap:butt;stroke-linejoin:miter;stroke-miterlimit:4;stroke-dasharray:none;stroke-opacity:0.10196102"
         d="m 169.949,476.379 0,-427.203" /><path
         id="path20"
         style="fill:none;stroke:#666666;stroke-width:0.5;stroke-linecap:butt;stroke-linejoin:miter;stroke-miterlimit:4;stroke-dasharray:none;stroke-opacity:0.10196102"
         d="m 277.621,476.379 0,-427.203" /><path
         id="path22"
         style="fill:none;stroke:#666666;stroke-width:0.5;stroke-linecap:butt;stroke-linejoin:miter;stroke-miterlimit:4;stroke-dasharray:none;stroke-opacity:0.10196102"
         d="m 385.301,476.379 0,-427.203" /><path
         id="path24"
         style="fill:none;stroke:#666666;stroke-width:0.5;stroke-linecap:butt;stroke-linejoin:miter;stroke-miterlimit:4;stroke-dasharray:none;stroke-opacity:0.10196102"
         d="m 62.27,61.27 333.792,0" /><path
         id="path26"
         style="fill:none;stroke:#666666;stroke-width:0.5;stroke-linecap:butt;stroke-linejoin:miter;stroke-miterlimit:4;stroke-dasharray:none;stroke-opacity:0.10196102"
         d="m 62.27,162.027 333.792,0" /><path
         id="path28"
         style="fill:none;stroke:#666666;stroke-width:0.5;stroke-linecap:butt;stroke-linejoin:miter;stroke-miterlimit:4;stroke-dasharray:none;stroke-opacity:0.10196102"
         d="m 62.27,262.777 333.792,0" /><path
         id="path30"
         style="fill:none;stroke:#666666;stroke-width:0.5;stroke-linecap:butt;stroke-linejoin:miter;stroke-miterlimit:4;stroke-dasharray:none;stroke-opacity:0.10196102"
         d="m 62.27,363.527 333.792,0" /><path
         id="path32"
         style="fill:none;stroke:#666666;stroke-width:0.5;stroke-linecap:butt;stroke-linejoin:miter;stroke-miterlimit:4;stroke-dasharray:none;stroke-opacity:0.10196102"
         d="m 62.27,464.289 333.792,0" /><path
         id="path34"
         style="fill:none;stroke:#00008b;stroke-width:1;stroke-linecap:butt;stroke-linejoin:miter;stroke-miterlimit:2;stroke-dasharray:none;stroke-opacity:0.30196102"
         d="m 73.039,253.207 43.07,-17.398 53.84,16.578 107.672,-9.821 107.68,-181.296" /><path
         id="path36"
         style="fill:none;stroke:#00008b;stroke-width:1;stroke-linecap:butt;stroke-linejoin:miter;stroke-miterlimit:2;stroke-dasharray:none;stroke-opacity:0.30196102"
         d="m 73.039,232.809 96.91,5.257 107.672,-85.359 107.68,46.5" /><path
         id="path38"
         style="fill:none;stroke:#00008b;stroke-width:1;stroke-linecap:butt;stroke-linejoin:miter;stroke-miterlimit:2;stroke-dasharray:none;stroke-opacity:0.30196102"
         d="m 73.039,248.059 43.07,13.808 53.84,-48.219 107.672,-71.949 107.68,10.5" /><path
         id="path40"
         style="fill:none;stroke:#00008b;stroke-width:1;stroke-linecap:butt;stroke-linejoin:miter;stroke-miterlimit:2;stroke-dasharray:none;stroke-opacity:0.30196102"
         d="m 73.039,251.059 43.07,-5.582 53.84,-16.59 107.672,-51.149 107.68,-50.011" /><path
         id="path42"
         style="fill:none;stroke:#00008b;stroke-width:1;stroke-linecap:butt;stroke-linejoin:miter;stroke-miterlimit:2;stroke-dasharray:none;stroke-opacity:0.30196102"
         d="m 73.039,252.398 43.07,0.391 53.84,10.41 107.672,-29.41 107.68,-16.562" /><path
         id="path44"
         style="fill:none;stroke:#00008b;stroke-width:1;stroke-linecap:butt;stroke-linejoin:miter;stroke-miterlimit:2;stroke-dasharray:none;stroke-opacity:0.30196102"
         d="m 73.039,263.27 43.07,3.32 53.84,-0.91 107.672,-87.793 107.68,44.679" /><path
         id="path46"
         style="fill:none;stroke:#00008b;stroke-width:1;stroke-linecap:butt;stroke-linejoin:miter;stroke-miterlimit:2;stroke-dasharray:none;stroke-opacity:0.30196102"
         d="m 73.039,253.898 43.07,-50.082 53.84,-22.867 107.672,-41.383 107.68,5.043" /><path
         id="path48"
         style="fill:none;stroke:#00008b;stroke-width:1;stroke-linecap:butt;stroke-linejoin:miter;stroke-miterlimit:2;stroke-dasharray:none;stroke-opacity:0.30196102"
         d="m 73.039,260.367 43.07,0.801 53.84,-1.191 107.672,-6.137 107.68,-8.692" /><path
         id="path50"
         style="fill:none;stroke:#00008b;stroke-width:1;stroke-linecap:butt;stroke-linejoin:miter;stroke-miterlimit:2;stroke-dasharray:none;stroke-opacity:0.30196102"
         d="m 73.039,259.609 43.07,-17.019 53.84,-29.293 107.672,-6.981 107.68,-3.457" /><path
         id="path52"
         style="fill:none;stroke:#b3b3b3;stroke-width:1;stroke-linecap:butt;stroke-linejoin:miter;stroke-miterlimit:2;stroke-dasharray:none;stroke-opacity:0.30196102"
         d="m 73.039,263.188 43.07,-0.34 53.84,0.511 107.672,-0.043 107.68,0.75" /><path
         id="path54"
         style="fill:none;stroke:#b3b3b3;stroke-width:1;stroke-linecap:butt;stroke-linejoin:miter;stroke-miterlimit:2;stroke-dasharray:none;stroke-opacity:0.30196102"
         d="m 73.039,253.34 43.07,8.566 53.84,1.762 215.352,0.559" /><path
         id="path56"
         style="fill:none;stroke:#b3b3b3;stroke-width:1;stroke-linecap:butt;stroke-linejoin:miter;stroke-miterlimit:2;stroke-dasharray:none;stroke-opacity:0.30196102"
         d="m 73.039,253.258 43.07,10.262 53.84,-16.25 107.672,21.648 107.68,-3.871" /><path
         id="path58"
         style="fill:none;stroke:#b3b3b3;stroke-width:1;stroke-linecap:butt;stroke-linejoin:miter;stroke-miterlimit:2;stroke-dasharray:none;stroke-opacity:0.30196102"
         d="m 73.039,263.488 96.91,-0.281 107.672,0.141 107.68,-0.41" /><path
         id="path60"
         style="fill:none;stroke:#b3b3b3;stroke-width:1;stroke-linecap:butt;stroke-linejoin:miter;stroke-miterlimit:2;stroke-dasharray:none;stroke-opacity:0.30196102"
         d="m 73.039,262.938 43.07,0.832 53.84,-0.711 215.352,1.039" /><path
         id="path62"
         style="fill:none;stroke:#b3b3b3;stroke-width:1;stroke-linecap:butt;stroke-linejoin:miter;stroke-miterlimit:2;stroke-dasharray:none;stroke-opacity:0.30196102"
         d="m 73.039,263.109 43.07,0.789 53.84,-0.378 215.352,1.57" /><path
         id="path64"
         style="fill:none;stroke:#b3b3b3;stroke-width:1;stroke-linecap:butt;stroke-linejoin:miter;stroke-miterlimit:2;stroke-dasharray:none;stroke-opacity:0.30196102"
         d="m 73.039,262.996 43.07,1.742 53.84,-1.379 107.672,0.008 107.68,1.473" /><path
         id="path66"
         style="fill:none;stroke:#b3b3b3;stroke-width:1;stroke-linecap:butt;stroke-linejoin:miter;stroke-miterlimit:2;stroke-dasharray:none;stroke-opacity:0.30196102"
         d="m 73.039,263.246 43.07,-2.359 53.84,2.781 107.672,0.809 107.68,-1.539" /><path
         id="path68"
         style="fill:none;stroke:#b3b3b3;stroke-width:1;stroke-linecap:butt;stroke-linejoin:miter;stroke-miterlimit:2;stroke-dasharray:none;stroke-opacity:0.30196102"
         d="m 73.039,263.438 43.07,0.039 53.84,1.062 215.352,0.551" /><path
         id="path70"
         style="fill:none;stroke:#b3b3b3;stroke-width:1;stroke-linecap:butt;stroke-linejoin:miter;stroke-miterlimit:2;stroke-dasharray:none;stroke-opacity:0.30196102"
         d="m 73.039,262.867 43.07,0.391 53.84,2.93 107.672,-2.098 107.68,1.148" /><path
         id="path72"
         style="fill:none;stroke:#b3b3b3;stroke-width:1;stroke-linecap:butt;stroke-linejoin:miter;stroke-miterlimit:2;stroke-dasharray:none;stroke-opacity:0.30196102"
         d="m 73.039,256.527 43.07,2.5 53.84,5.301 107.672,-8.129 107.68,7.66" /><path
         id="path74"
         style="fill:none;stroke:#b3b3b3;stroke-width:1;stroke-linecap:butt;stroke-linejoin:miter;stroke-miterlimit:2;stroke-dasharray:none;stroke-opacity:0.30196102"
         d="m 73.039,259.656 43.07,-1.636 53.84,5.207 215.352,1.953" /><path
         id="path76"
         style="fill:none;stroke:#b3b3b3;stroke-width:1;stroke-linecap:butt;stroke-linejoin:miter;stroke-miterlimit:2;stroke-dasharray:none;stroke-opacity:0.30196102"
         d="m 73.039,263.34 43.07,-0.16 53.84,0.59 215.352,0" /><path
         id="path78"
         style="fill:none;stroke:#b3b3b3;stroke-width:1;stroke-linecap:butt;stroke-linejoin:miter;stroke-miterlimit:2;stroke-dasharray:none;stroke-opacity:0.30196102"
         d="m 73.039,262.906 96.91,0.313 107.672,0.129 107.68,0.289" /><path
         id="path80"
         style="fill:none;stroke:#b3b3b3;stroke-width:1;stroke-linecap:butt;stroke-linejoin:miter;stroke-miterlimit:2;stroke-dasharray:none;stroke-opacity:0.30196102"
         d="m 73.039,262.789 43.07,-2.973 53.84,3.883 107.672,-0.461 107.68,1.168" /><path
         id="path82"
         style="fill:none;stroke:#b3b3b3;stroke-width:1;stroke-linecap:butt;stroke-linejoin:miter;stroke-miterlimit:2;stroke-dasharray:none;stroke-opacity:0.30196102"
         d="m 73.039,263.52 43.07,0.148 53.84,-1.77 107.672,1.411 107.68,-0.11" /><path
         id="path84"
         style="fill:none;stroke:#b3b3b3;stroke-width:1;stroke-linecap:butt;stroke-linejoin:miter;stroke-miterlimit:2;stroke-dasharray:none;stroke-opacity:0.30196102"
         d="m 73.039,259.508 43.07,4.281 53.84,-0.859 107.672,4.179 107.68,-3.8" /><path
         id="path86"
         style="fill:none;stroke:#b3b3b3;stroke-width:1;stroke-linecap:butt;stroke-linejoin:miter;stroke-miterlimit:2;stroke-dasharray:none;stroke-opacity:0.30196102"
         d="m 73.039,263.828 43.07,1.328 53.84,-1.109 107.672,1.402 107.68,-0.859" /><path
         id="path88"
         style="fill:none;stroke:#b3b3b3;stroke-width:1;stroke-linecap:butt;stroke-linejoin:miter;stroke-miterlimit:2;stroke-dasharray:none;stroke-opacity:0.30196102"
         d="m 73.039,250.27 43.07,12.718 53.84,-0.539 215.352,9.168" /><path
         id="path90"
         style="fill:none;stroke:#b3b3b3;stroke-width:1;stroke-linecap:butt;stroke-linejoin:miter;stroke-miterlimit:2;stroke-dasharray:none;stroke-opacity:0.30196102"
         d="m 73.039,224.078 43.07,42.27 53.84,1.73 107.672,-19.41 107.68,20.5" /><path
         id="path92"
         style="fill:none;stroke:#b3b3b3;stroke-width:1;stroke-linecap:butt;stroke-linejoin:miter;stroke-miterlimit:2;stroke-dasharray:none;stroke-opacity:0.30196102"
         d="m 73.039,262.52 43.07,-1.473 53.84,-4.25 107.672,-4.207 107.68,-24.813" /><path
         id="path94"
         style="fill:none;stroke:#b3b3b3;stroke-width:1;stroke-linecap:butt;stroke-linejoin:miter;stroke-miterlimit:2;stroke-dasharray:none;stroke-opacity:0.30196102"
         d="m 73.039,263.84 96.91,0.359 107.672,1.489 107.68,-1.051" /><path
         id="path96"
         style="fill:none;stroke:#b3b3b3;stroke-width:1;stroke-linecap:butt;stroke-linejoin:miter;stroke-miterlimit:2;stroke-dasharray:none;stroke-opacity:0.30196102"
         d="m 73.039,257.008 43.07,5.058 53.84,-5.527 107.672,2.777 107.68,5" /><path
         id="path98"
         style="fill:none;stroke:#b3b3b3;stroke-width:1;stroke-linecap:butt;stroke-linejoin:miter;stroke-miterlimit:2;stroke-dasharray:none;stroke-opacity:0.30196102"
         d="m 73.039,262.918 96.91,2.66 107.672,5.219 107.68,5.34" /><path
         id="path100"
         style="fill:none;stroke:#b3b3b3;stroke-width:1;stroke-linecap:butt;stroke-linejoin:miter;stroke-miterlimit:2;stroke-dasharray:none;stroke-opacity:0.30196102"
         d="m 73.039,261.848 43.07,0.929 53.84,-12.16 107.672,13.473 107.68,-0.531" /><path
         id="path102"
         style="fill:none;stroke:#b3b3b3;stroke-width:1;stroke-linecap:butt;stroke-linejoin:miter;stroke-miterlimit:2;stroke-dasharray:none;stroke-opacity:0.30196102"
         d="m 73.039,263.379 43.07,1.769 53.84,-1.359 215.352,4.82" /><path
         id="path104"
         style="fill:none;stroke:#b3b3b3;stroke-width:1;stroke-linecap:butt;stroke-linejoin:miter;stroke-miterlimit:2;stroke-dasharray:none;stroke-opacity:0.30196102"
         d="m 73.039,263.008 43.07,-6.262 53.84,9.844 107.672,-3.492 107.68,0.968" /><path
         id="path106"
         style="fill:none;stroke:#b3b3b3;stroke-width:1;stroke-linecap:butt;stroke-linejoin:miter;stroke-miterlimit:2;stroke-dasharray:none;stroke-opacity:0.30196102"
         d="m 73.039,255.887 43.07,7.769 53.84,5 107.672,-4.117 107.68,0.68" /><path
         id="path108"
         style="fill:none;stroke:#b3b3b3;stroke-width:1;stroke-linecap:butt;stroke-linejoin:miter;stroke-miterlimit:2;stroke-dasharray:none;stroke-opacity:0.30196102"
         d="m 73.039,265.387 43.07,-2.289 53.84,0.32 215.352,0.078" /><path
         id="path110"
         style="fill:none;stroke:#b3b3b3;stroke-width:1;stroke-linecap:butt;stroke-linejoin:miter;stroke-miterlimit:2;stroke-dasharray:none;stroke-opacity:0.30196102"
         d="m 73.039,263.539 96.91,-0.512 107.672,1.289 107.68,-0.296" /><path
         id="path112"
         style="fill:none;stroke:#b3b3b3;stroke-width:1;stroke-linecap:butt;stroke-linejoin:miter;stroke-miterlimit:2;stroke-dasharray:none;stroke-opacity:0.30196102"
         d="m 73.039,251.977 43.07,7.441 53.84,7.43 107.672,-1.692 107.68,1.961" /><path
         id="path114"
         style="fill:none;stroke:#b3b3b3;stroke-width:1;stroke-linecap:butt;stroke-linejoin:miter;stroke-miterlimit:2;stroke-dasharray:none;stroke-opacity:0.30196102"
         d="m 73.039,261.316 43.07,2.793 53.84,-0.281 107.672,-4.14 107.68,3.671" /><path
         id="path116"
         style="fill:none;stroke:#b3b3b3;stroke-width:1;stroke-linecap:butt;stroke-linejoin:miter;stroke-miterlimit:2;stroke-dasharray:none;stroke-opacity:0.30196102"
         d="m 73.039,262.977 43.07,-0.137 53.84,-3.371 107.672,-1.762 107.68,2.43" /><path
         id="path118"
         style="fill:none;stroke:#b3b3b3;stroke-width:1;stroke-linecap:butt;stroke-linejoin:miter;stroke-miterlimit:2;stroke-dasharray:none;stroke-opacity:0.30196102"
         d="m 73.039,260.988 43.07,1.25 53.84,0.7 215.352,0.308" /><path
         id="path120"
         style="fill:none;stroke:#b3b3b3;stroke-width:1;stroke-linecap:butt;stroke-linejoin:miter;stroke-miterlimit:2;stroke-dasharray:none;stroke-opacity:0.30196102"
         d="m 73.039,263.449 43.07,-0.812 53.84,1.5 107.672,-0.168 107.68,-1.039" /><path
         id="path122"
         style="fill:none;stroke:#8b0000;stroke-width:1;stroke-linecap:butt;stroke-linejoin:miter;stroke-miterlimit:2;stroke-dasharray:none;stroke-opacity:0.30196102"
         d="m 73.039,265.906 43.07,-2.418 53.84,0.102 107.672,-0.012 107.68,4.309" /><path
         id="path124"
         style="fill:none;stroke:#8b0000;stroke-width:1;stroke-linecap:butt;stroke-linejoin:miter;stroke-miterlimit:2;stroke-dasharray:none;stroke-opacity:0.30196102"
         d="m 73.039,264.066 43.07,3.891 53.84,24.57 107.672,27.59 107.68,-18.687" /><path
         id="path126"
         style="fill:none;stroke:#8b0000;stroke-width:1;stroke-linecap:butt;stroke-linejoin:miter;stroke-miterlimit:2;stroke-dasharray:none;stroke-opacity:0.30196102"
         d="m 73.039,263.188 43.07,2.66 53.84,2.199 107.672,7.383 107.68,1.207" /><path
         id="path128"
         style="fill:none;stroke:#8b0000;stroke-width:1;stroke-linecap:butt;stroke-linejoin:miter;stroke-miterlimit:2;stroke-dasharray:none;stroke-opacity:0.30196102"
         d="m 73.039,267.316 96.91,20.551 107.672,4.641 107.68,14.051" /><path
         id="path130"
         style="fill:none;stroke:#8b0000;stroke-width:1;stroke-linecap:butt;stroke-linejoin:miter;stroke-miterlimit:2;stroke-dasharray:none;stroke-opacity:0.30196102"
         d="m 73.039,263.59 43.07,4.09 53.84,2.738 107.672,-4.18 107.68,1.66" /><path
         id="path132"
         style="fill:none;stroke:#8b0000;stroke-width:1;stroke-linecap:butt;stroke-linejoin:miter;stroke-miterlimit:2;stroke-dasharray:none;stroke-opacity:0.30196102"
         d="m 73.039,262.918 96.91,4.539 107.672,8.66 107.68,-3.508" /><path
         id="path134"
         style="fill:none;stroke:#8b0000;stroke-width:1;stroke-linecap:butt;stroke-linejoin:miter;stroke-miterlimit:2;stroke-dasharray:none;stroke-opacity:0.30196102"
         d="m 73.039,263.219 43.07,9.058 53.84,23.871 107.672,-22.3 107.68,-19.711" /><path
         id="path136"
         style="fill:none;stroke:#8b0000;stroke-width:1;stroke-linecap:butt;stroke-linejoin:miter;stroke-miterlimit:2;stroke-dasharray:none;stroke-opacity:0.30196102"
         d="m 73.039,263.309 43.07,15.039 53.84,15.101 107.672,72.18 107.68,34.187" /><path
         id="path138"
         style="fill:none;stroke:#8b0000;stroke-width:1;stroke-linecap:butt;stroke-linejoin:miter;stroke-miterlimit:2;stroke-dasharray:none;stroke-opacity:0.30196102"
         d="m 73.039,270.84 43.07,18.668 53.84,12.941 107.672,43.879 107.68,2.84" /><path
         id="path140"
         style="fill:none;stroke:#8b0000;stroke-width:1;stroke-linecap:butt;stroke-linejoin:miter;stroke-miterlimit:2;stroke-dasharray:none;stroke-opacity:0.30196102"
         d="m 73.039,263.629 43.07,6.199 53.84,19.352 107.672,145.758 107.68,-22.84" /><path
         id="path142"
         style="fill:none;stroke:#8b0000;stroke-width:1;stroke-linecap:butt;stroke-linejoin:miter;stroke-miterlimit:2;stroke-dasharray:none;stroke-opacity:0.30196102"
         d="m 73.039,264.188 43.07,8.339 53.84,5.532 107.672,16.589 107.68,-1.031" /><path
         id="path144"
         style="fill:none;stroke:#8b0000;stroke-width:1;stroke-linecap:butt;stroke-linejoin:miter;stroke-miterlimit:2;stroke-dasharray:none;stroke-opacity:0.30196102"
         d="m 73.039,259.148 43.07,4.872 53.84,-0.75 107.672,6.429 107.68,1.059" /><path
         id="path146"
         style="fill:none;stroke:#8b0000;stroke-width:1;stroke-linecap:butt;stroke-linejoin:miter;stroke-miterlimit:2;stroke-dasharray:none;stroke-opacity:0.30196102"
         d="m 73.039,263.527 43.07,2.493 53.84,5.777 107.672,10.859 107.68,1.293" /><path
         id="path148"
         style="fill:none;stroke:#8b0000;stroke-width:1;stroke-linecap:butt;stroke-linejoin:miter;stroke-miterlimit:2;stroke-dasharray:none;stroke-opacity:0.30196102"
         d="m 73.039,264.348 43.07,3.851 53.84,-2.871 107.672,13.692 107.68,23.359" /><path
         id="path150"
         style="fill:none;stroke:#8b0000;stroke-width:1;stroke-linecap:butt;stroke-linejoin:miter;stroke-miterlimit:2;stroke-dasharray:none;stroke-opacity:0.30196102"
         d="m 73.039,274.039 43.07,11.957 53.84,36.102 107.672,1.949 107.68,-32.059" /><path
         id="path152"
         style="fill:none;stroke:#8b0000;stroke-width:1;stroke-linecap:butt;stroke-linejoin:miter;stroke-miterlimit:2;stroke-dasharray:none;stroke-opacity:0.30196102"
         d="m 73.039,264.387 43.07,11.89 53.84,1.891 107.672,7.922 107.68,13.387" /><path
         id="path154"
         style="fill:none;stroke:#8b0000;stroke-width:1;stroke-linecap:butt;stroke-linejoin:miter;stroke-miterlimit:2;stroke-dasharray:none;stroke-opacity:0.30196102"
         d="m 73.039,271.199 43.07,59.68 53.84,72.828 107.672,-50.488 107.68,34.308" /><path
         id="path156"
         style="fill:none;stroke:#8b0000;stroke-width:1;stroke-linecap:butt;stroke-linejoin:miter;stroke-miterlimit:2;stroke-dasharray:none;stroke-opacity:0.30196102"
         d="m 73.039,264.418 43.07,-0.879 53.84,0.098 107.672,16.043 107.68,-14.282" /><path
         id="path158"
         style="fill:none;stroke:#8b0000;stroke-width:1;stroke-linecap:butt;stroke-linejoin:miter;stroke-miterlimit:2;stroke-dasharray:none;stroke-opacity:0.30196102"
         d="m 73.039,256.359 43.07,13.219 53.84,-2.512 107.672,24.09 107.68,-6.16" /><path
         id="path160"
         style="fill:none;stroke:#8b0000;stroke-width:1;stroke-linecap:butt;stroke-linejoin:miter;stroke-miterlimit:2;stroke-dasharray:none;stroke-opacity:0.30196102"
         d="m 73.039,265.066 43.07,1 53.84,7.172 107.672,3.891 107.68,8.598" /><path
         id="path162"
         style="fill:none;stroke:#8b0000;stroke-width:1;stroke-linecap:butt;stroke-linejoin:miter;stroke-miterlimit:2;stroke-dasharray:none;stroke-opacity:0.30196102"
         d="m 73.039,270.566 43.07,24.063 53.84,27.84 107.672,15.57 107.68,41.578" /><path
         id="path164"
         style="fill:none;stroke:#8b0000;stroke-width:1;stroke-linecap:butt;stroke-linejoin:miter;stroke-miterlimit:2;stroke-dasharray:none;stroke-opacity:0.30196102"
         d="m 73.039,262.727 43.07,4.55 53.84,-1.929 107.672,-0.969 107.68,10.648" /><path
         id="path166"
         style="fill:none;stroke:#8b0000;stroke-width:1;stroke-linecap:butt;stroke-linejoin:miter;stroke-miterlimit:2;stroke-dasharray:none;stroke-opacity:0.30196102"
         d="m 73.039,265.719 43.07,2.679 53.84,7.27 107.672,4 107.68,-9.102" /><path
         id="path168"
         style="fill:none;stroke:#8b0000;stroke-width:1;stroke-linecap:butt;stroke-linejoin:miter;stroke-miterlimit:2;stroke-dasharray:none;stroke-opacity:0.30196102"
         d="m 73.039,265.828 43.07,2.149 53.84,8.961 107.672,27.73 107.68,-6.641" /><path
         id="path170"
         style="fill:none;stroke:#8b0000;stroke-width:1;stroke-linecap:butt;stroke-linejoin:miter;stroke-miterlimit:2;stroke-dasharray:none;stroke-opacity:0.30196102"
         d="m 73.039,268.008 43.07,16.289 53.84,-7.149 107.672,187.141 107.68,-120.711" /><path
         id="path172"
         style="fill:none;stroke:#8b0000;stroke-width:1;stroke-linecap:butt;stroke-linejoin:miter;stroke-miterlimit:2;stroke-dasharray:none;stroke-opacity:0.30196102"
         d="m 73.039,267.027 43.07,7.871 53.84,3.77 107.672,11.84 107.68,20.09" /><path
         id="path174"
         style="fill:none;stroke:#00008b;stroke-width:4;stroke-linecap:butt;stroke-linejoin:miter;stroke-miterlimit:2;stroke-dasharray:none;stroke-opacity:1"
         d="m 73.039,252.738 96.91,-17.621 107.672,-43.328 107.68,-17.031" /><path
         id="path176"
         style="fill:none;stroke:#808080;stroke-width:1;stroke-linecap:butt;stroke-linejoin:miter;stroke-miterlimit:2;stroke-dasharray:none;stroke-opacity:1"
         d="m 73.039,249.758 0,5.961" /><path
         id="path178"
         style="fill:none;stroke:#808080;stroke-width:1;stroke-linecap:butt;stroke-linejoin:miter;stroke-miterlimit:2;stroke-dasharray:none;stroke-opacity:1"
         d="m 116.109,238.598 0,12.82" /><path
         id="path180"
         style="fill:none;stroke:#808080;stroke-width:1;stroke-linecap:butt;stroke-linejoin:miter;stroke-miterlimit:2;stroke-dasharray:none;stroke-opacity:1"
         d="m 169.949,225.578 0,19.09" /><path
         id="path182"
         style="fill:none;stroke:#808080;stroke-width:1;stroke-linecap:butt;stroke-linejoin:miter;stroke-miterlimit:2;stroke-dasharray:none;stroke-opacity:1"
         d="m 277.621,177.09 0,29.398" /><path
         id="path184"
         style="fill:none;stroke:#808080;stroke-width:1;stroke-linecap:butt;stroke-linejoin:miter;stroke-miterlimit:2;stroke-dasharray:none;stroke-opacity:1"
         d="m 385.301,155.418 0,38.68" /><path
         id="path186"
         style="fill:none;stroke:#808080;stroke-width:1;stroke-linecap:butt;stroke-linejoin:miter;stroke-miterlimit:2;stroke-dasharray:none;stroke-opacity:1"
         d="m 78.641,249.758 -11.2,0" /><path
         id="path188"
         style="fill:none;stroke:#808080;stroke-width:1;stroke-linecap:butt;stroke-linejoin:miter;stroke-miterlimit:2;stroke-dasharray:none;stroke-opacity:1"
         d="m 78.641,255.719 -11.2,0" /><path
         id="path190"
         style="fill:none;stroke:#808080;stroke-width:1;stroke-linecap:butt;stroke-linejoin:miter;stroke-miterlimit:2;stroke-dasharray:none;stroke-opacity:1"
         d="m 121.711,238.598 -11.199,0" /><path
         id="path192"
         style="fill:none;stroke:#808080;stroke-width:1;stroke-linecap:butt;stroke-linejoin:miter;stroke-miterlimit:2;stroke-dasharray:none;stroke-opacity:1"
         d="m 121.711,251.418 -11.199,0" /><path
         id="path194"
         style="fill:none;stroke:#808080;stroke-width:1;stroke-linecap:butt;stroke-linejoin:miter;stroke-miterlimit:2;stroke-dasharray:none;stroke-opacity:1"
         d="m 175.551,225.578 -11.199,0" /><path
         id="path196"
         style="fill:none;stroke:#808080;stroke-width:1;stroke-linecap:butt;stroke-linejoin:miter;stroke-miterlimit:2;stroke-dasharray:none;stroke-opacity:1"
         d="m 175.551,244.668 -11.199,0" /><path
         id="path198"
         style="fill:none;stroke:#808080;stroke-width:1;stroke-linecap:butt;stroke-linejoin:miter;stroke-miterlimit:2;stroke-dasharray:none;stroke-opacity:1"
         d="m 283.219,177.09 -11.199,0" /><path
         id="path200"
         style="fill:none;stroke:#808080;stroke-width:1;stroke-linecap:butt;stroke-linejoin:miter;stroke-miterlimit:2;stroke-dasharray:none;stroke-opacity:1"
         d="m 283.219,206.488 -11.199,0" /><path
         id="path202"
         style="fill:none;stroke:#808080;stroke-width:1;stroke-linecap:butt;stroke-linejoin:miter;stroke-miterlimit:2;stroke-dasharray:none;stroke-opacity:1"
         d="m 390.898,155.418 -11.199,0" /><path
         id="path204"
         style="fill:none;stroke:#808080;stroke-width:1;stroke-linecap:butt;stroke-linejoin:miter;stroke-miterlimit:2;stroke-dasharray:none;stroke-opacity:1"
         d="m 390.898,194.098 -11.199,0" /><path
         id="path206"
         style="fill:none;stroke:#b3b3b3;stroke-width:4;stroke-linecap:butt;stroke-linejoin:miter;stroke-miterlimit:2;stroke-dasharray:none;stroke-opacity:1"
         d="m 73.039,259.949 43.07,2.719 53.84,0.07 215.352,1.121" /><path
         id="path208"
         style="fill:none;stroke:#808080;stroke-width:1;stroke-linecap:butt;stroke-linejoin:miter;stroke-miterlimit:2;stroke-dasharray:none;stroke-opacity:1"
         d="m 73.039,258.707 0,2.481" /><path
         id="path210"
         style="fill:none;stroke:#808080;stroke-width:1;stroke-linecap:butt;stroke-linejoin:miter;stroke-miterlimit:2;stroke-dasharray:none;stroke-opacity:1"
         d="m 116.109,262.316 0,0.692" /><path
         id="path212"
         style="fill:none;stroke:#808080;stroke-width:1;stroke-linecap:butt;stroke-linejoin:miter;stroke-miterlimit:2;stroke-dasharray:none;stroke-opacity:1"
         d="m 169.949,262.027 0,1.43" /><path
         id="path214"
         style="fill:none;stroke:#808080;stroke-width:1;stroke-linecap:butt;stroke-linejoin:miter;stroke-miterlimit:2;stroke-dasharray:none;stroke-opacity:1"
         d="m 277.621,262.438 0,1.402" /><path
         id="path216"
         style="fill:none;stroke:#808080;stroke-width:1;stroke-linecap:butt;stroke-linejoin:miter;stroke-miterlimit:2;stroke-dasharray:none;stroke-opacity:1"
         d="m 385.301,262.699 0,2.321" /><path
         id="path218"
         style="fill:none;stroke:#808080;stroke-width:1;stroke-linecap:butt;stroke-linejoin:miter;stroke-miterlimit:2;stroke-dasharray:none;stroke-opacity:1"
         d="m 78.641,258.707 -11.2,0" /><path
         id="path220"
         style="fill:none;stroke:#808080;stroke-width:1;stroke-linecap:butt;stroke-linejoin:miter;stroke-miterlimit:2;stroke-dasharray:none;stroke-opacity:1"
         d="m 78.641,261.188 -11.2,0" /><path
         id="path222"
         style="fill:none;stroke:#808080;stroke-width:1;stroke-linecap:butt;stroke-linejoin:miter;stroke-miterlimit:2;stroke-dasharray:none;stroke-opacity:1"
         d="m 121.711,262.316 -11.199,0" /><path
         id="path224"
         style="fill:none;stroke:#808080;stroke-width:1;stroke-linecap:butt;stroke-linejoin:miter;stroke-miterlimit:2;stroke-dasharray:none;stroke-opacity:1"
         d="m 121.711,263.008 -11.199,0" /><path
         id="path226"
         style="fill:none;stroke:#808080;stroke-width:1;stroke-linecap:butt;stroke-linejoin:miter;stroke-miterlimit:2;stroke-dasharray:none;stroke-opacity:1"
         d="m 175.551,262.027 -11.199,0" /><path
         id="path228"
         style="fill:none;stroke:#808080;stroke-width:1;stroke-linecap:butt;stroke-linejoin:miter;stroke-miterlimit:2;stroke-dasharray:none;stroke-opacity:1"
         d="m 175.551,263.457 -11.199,0" /><path
         id="path230"
         style="fill:none;stroke:#808080;stroke-width:1;stroke-linecap:butt;stroke-linejoin:miter;stroke-miterlimit:2;stroke-dasharray:none;stroke-opacity:1"
         d="m 283.219,262.438 -11.199,0" /><path
         id="path232"
         style="fill:none;stroke:#808080;stroke-width:1;stroke-linecap:butt;stroke-linejoin:miter;stroke-miterlimit:2;stroke-dasharray:none;stroke-opacity:1"
         d="m 283.219,263.84 -11.199,0" /><path
         id="path234"
         style="fill:none;stroke:#808080;stroke-width:1;stroke-linecap:butt;stroke-linejoin:miter;stroke-miterlimit:2;stroke-dasharray:none;stroke-opacity:1"
         d="m 390.898,262.699 -11.199,0" /><path
         id="path236"
         style="fill:none;stroke:#808080;stroke-width:1;stroke-linecap:butt;stroke-linejoin:miter;stroke-miterlimit:2;stroke-dasharray:none;stroke-opacity:1"
         d="m 390.898,265.02 -11.199,0" /><path
         id="path238"
         style="fill:none;stroke:#8b0000;stroke-width:4;stroke-linecap:butt;stroke-linejoin:miter;stroke-miterlimit:2;stroke-dasharray:none;stroke-opacity:1"
         d="m 73.039,265.18 96.91,19.968 107.672,22.301 107.68,-1.621" /><path
         id="path240"
         style="fill:none;stroke:#808080;stroke-width:1;stroke-linecap:butt;stroke-linejoin:miter;stroke-miterlimit:2;stroke-dasharray:none;stroke-opacity:1"
         d="m 73.039,264.449 0,1.449" /><path
         id="path242"
         style="fill:none;stroke:#808080;stroke-width:1;stroke-linecap:butt;stroke-linejoin:miter;stroke-miterlimit:2;stroke-dasharray:none;stroke-opacity:1"
         d="m 116.109,271.727 0,5.562" /><path
         id="path244"
         style="fill:none;stroke:#808080;stroke-width:1;stroke-linecap:butt;stroke-linejoin:miter;stroke-miterlimit:2;stroke-dasharray:none;stroke-opacity:1"
         d="m 169.949,279.406 0,11.473" /><path
         id="path246"
         style="fill:none;stroke:#808080;stroke-width:1;stroke-linecap:butt;stroke-linejoin:miter;stroke-miterlimit:2;stroke-dasharray:none;stroke-opacity:1"
         d="m 277.621,297.477 0,19.929" /><path
         id="path248"
         style="fill:none;stroke:#808080;stroke-width:1;stroke-linecap:butt;stroke-linejoin:miter;stroke-miterlimit:2;stroke-dasharray:none;stroke-opacity:1"
         d="m 385.301,297.059 0,17.531" /><path
         id="path250"
         style="fill:none;stroke:#808080;stroke-width:1;stroke-linecap:butt;stroke-linejoin:miter;stroke-miterlimit:2;stroke-dasharray:none;stroke-opacity:1"
         d="m 78.641,264.449 -11.2,0" /><path
         id="path252"
         style="fill:none;stroke:#808080;stroke-width:1;stroke-linecap:butt;stroke-linejoin:miter;stroke-miterlimit:2;stroke-dasharray:none;stroke-opacity:1"
         d="m 78.641,265.898 -11.2,0" /><path
         id="path254"
         style="fill:none;stroke:#808080;stroke-width:1;stroke-linecap:butt;stroke-linejoin:miter;stroke-miterlimit:2;stroke-dasharray:none;stroke-opacity:1"
         d="m 121.711,271.727 -11.199,0" /><path
         id="path256"
         style="fill:none;stroke:#808080;stroke-width:1;stroke-linecap:butt;stroke-linejoin:miter;stroke-miterlimit:2;stroke-dasharray:none;stroke-opacity:1"
         d="m 121.711,277.289 -11.199,0" /><path
         id="path258"
         style="fill:none;stroke:#808080;stroke-width:1;stroke-linecap:butt;stroke-linejoin:miter;stroke-miterlimit:2;stroke-dasharray:none;stroke-opacity:1"
         d="m 175.551,279.406 -11.199,0" /><path
         id="path260"
         style="fill:none;stroke:#808080;stroke-width:1;stroke-linecap:butt;stroke-linejoin:miter;stroke-miterlimit:2;stroke-dasharray:none;stroke-opacity:1"
         d="m 175.551,290.879 -11.199,0" /><path
         id="path262"
         style="fill:none;stroke:#808080;stroke-width:1;stroke-linecap:butt;stroke-linejoin:miter;stroke-miterlimit:2;stroke-dasharray:none;stroke-opacity:1"
         d="m 283.219,297.477 -11.199,0" /><path
         id="path264"
         style="fill:none;stroke:#808080;stroke-width:1;stroke-linecap:butt;stroke-linejoin:miter;stroke-miterlimit:2;stroke-dasharray:none;stroke-opacity:1"
         d="m 283.219,317.406 -11.199,0" /><path
         id="path266"
         style="fill:none;stroke:#808080;stroke-width:1;stroke-linecap:butt;stroke-linejoin:miter;stroke-miterlimit:2;stroke-dasharray:none;stroke-opacity:1"
         d="m 390.898,297.059 -11.199,0" /><path
         id="path268"
         style="fill:none;stroke:#808080;stroke-width:1;stroke-linecap:butt;stroke-linejoin:miter;stroke-miterlimit:2;stroke-dasharray:none;stroke-opacity:1"
         d="m 390.898,314.59 -11.199,0" /><path
         id="path270"
         style="fill:none;stroke:#7f7f7f;stroke-width:1;stroke-linecap:butt;stroke-linejoin:miter;stroke-miterlimit:4;stroke-dasharray:none;stroke-opacity:1"
         d="m 61.27,48.676 334.792,0" /><path
         id="path272"
         style="fill:none;stroke:#7f7f7f;stroke-width:1;stroke-linecap:butt;stroke-linejoin:miter;stroke-miterlimit:4;stroke-dasharray:none;stroke-opacity:1"
         d="m 61.77,476.379 0,-427.203" /><path
         id="path274"
         style="fill:none;stroke:#7f7f7f;stroke-width:1;stroke-linecap:butt;stroke-linejoin:miter;stroke-miterlimit:4;stroke-dasharray:none;stroke-opacity:1"
         d="m 73.039,49.176 0,5" /><path
         id="path276"
         style="fill:none;stroke:#7f7f7f;stroke-width:1;stroke-linecap:butt;stroke-linejoin:miter;stroke-miterlimit:4;stroke-dasharray:none;stroke-opacity:1"
         d="m 116.109,49.176 0,5" /><path
         id="path278"
         style="fill:none;stroke:#7f7f7f;stroke-width:1;stroke-linecap:butt;stroke-linejoin:miter;stroke-miterlimit:4;stroke-dasharray:none;stroke-opacity:1"
         d="m 169.949,49.176 0,5" /><path
         id="path280"
         style="fill:none;stroke:#7f7f7f;stroke-width:1;stroke-linecap:butt;stroke-linejoin:miter;stroke-miterlimit:4;stroke-dasharray:none;stroke-opacity:1"
         d="m 277.621,49.176 0,5" /><path
         id="path282"
         style="fill:none;stroke:#7f7f7f;stroke-width:1;stroke-linecap:butt;stroke-linejoin:miter;stroke-miterlimit:4;stroke-dasharray:none;stroke-opacity:1"
         d="m 385.301,49.176 0,5" /><text
         id="text284"
         style="font-variant:normal;font-weight:normal;font-size:14px;font-family:'DejaVu Sans';-inkscape-font-specification:DejaVuSans;writing-mode:lr-tb;fill:#808080;fill-opacity:1;fill-rule:nonzero;stroke:none"
         transform="matrix(1,0,0,-1,68.585938,31.375977)"><tspan
           id="tspan286"
           y="0"
           x="0 43.063999 92.456001 101.36 200.12891 209.03291 307.80292 316.70691">15102030</tspan></text>
<path
         id="path288"
         style="fill:none;stroke:#7f7f7f;stroke-width:1;stroke-linecap:butt;stroke-linejoin:miter;stroke-miterlimit:4;stroke-dasharray:none;stroke-opacity:1"
         d="m 62.27,61.27 5,0" /><path
         id="path290"
         style="fill:none;stroke:#7f7f7f;stroke-width:1;stroke-linecap:butt;stroke-linejoin:miter;stroke-miterlimit:4;stroke-dasharray:none;stroke-opacity:1"
         d="m 62.27,162.027 5,0" /><path
         id="path292"
         style="fill:none;stroke:#7f7f7f;stroke-width:1;stroke-linecap:butt;stroke-linejoin:miter;stroke-miterlimit:4;stroke-dasharray:none;stroke-opacity:1"
         d="m 62.27,262.777 5,0" /><path
         id="path294"
         style="fill:none;stroke:#7f7f7f;stroke-width:1;stroke-linecap:butt;stroke-linejoin:miter;stroke-miterlimit:4;stroke-dasharray:none;stroke-opacity:1"
         d="m 62.27,363.527 5,0" /><path
         id="path296"
         style="fill:none;stroke:#7f7f7f;stroke-width:1;stroke-linecap:butt;stroke-linejoin:miter;stroke-miterlimit:4;stroke-dasharray:none;stroke-opacity:1"
         d="m 62.27,464.289 5,0" /><text
         id="text298"
         style="font-variant:normal;font-weight:normal;font-size:14px;font-family:'DejaVu Sans';-inkscape-font-specification:DejaVuSans;writing-mode:lr-tb;fill:#808080;fill-opacity:1;fill-rule:nonzero;stroke:none"
         transform="matrix(1,0,0,-1,31.152344,56.368164)"><tspan
           id="tspan300"
           y="0"
           x="0 5.04 13.944 18.382">-1.0</tspan><tspan
           id="tspan302"
           y="-100.76172"
           x="0 5.04 13.944 18.382">-0.5</tspan><tspan
           id="tspan304"
           y="-201.51173"
           x="5.0546861 13.958686 18.396687">0.0</tspan><tspan
           id="tspan306"
           y="-302.26175"
           x="5.0546861 13.958686 18.396687">0.5</tspan><tspan
           id="tspan308"
           y="-403.01956"
           x="5.0546861 13.958686 18.396687">1.0</tspan></text>
<path
         id="path310"
         style="fill:none;stroke:#00008b;stroke-width:4;stroke-linecap:butt;stroke-linejoin:miter;stroke-miterlimit:4;stroke-dasharray:none;stroke-opacity:1"
         d="m 65,450.602 30,0" /><text
         id="text312"
         style="font-variant:normal;font-weight:normal;font-size:14px;font-family:'DejaVu Sans';-inkscape-font-specification:DejaVuSans;writing-mode:lr-tb;fill:#808080;fill-opacity:1;fill-rule:nonzero;stroke:none"
         transform="matrix(1,0,0,-1,100,445.1416)"><tspan
           id="tspan314"
           y="0"
           x="0 8.8339996 16.856001 24.542 28.42 33.908001 42.476002 47.964001 56.518002 62.271999 70.545998 74.984001 80.43 89.040001 96.32 105.196 113.75 122.612 129.892 138.502">Excitatory responses</tspan></text>
<path
         id="path316"
         style="fill:none;stroke:#b3b3b3;stroke-width:4;stroke-linecap:butt;stroke-linejoin:miter;stroke-miterlimit:4;stroke-dasharray:none;stroke-opacity:1"
         d="m 65,429.398 30,0" /><text
         id="text318"
         style="font-variant:normal;font-weight:normal;font-size:14px;font-family:'DejaVu Sans';-inkscape-font-specification:DejaVuSans;writing-mode:lr-tb;fill:#808080;fill-opacity:1;fill-rule:nonzero;stroke:none"
         transform="matrix(1,0,0,-1,100,423.93848)"><tspan
           id="tspan320"
           y="0"
           x="0 10.472 19.025999 23.464001 28.91 37.52 44.799999 53.675999 62.23 71.092003 78.372002 86.982002">No responses</tspan></text>
<path
         id="path322"
         style="fill:none;stroke:#8b0000;stroke-width:4;stroke-linecap:butt;stroke-linejoin:miter;stroke-miterlimit:4;stroke-dasharray:none;stroke-opacity:1"
         d="m 65,408.199 30,0" /><text
         id="text324"
         style="font-variant:normal;font-weight:normal;font-size:14px;font-family:'DejaVu Sans';-inkscape-font-specification:DejaVuSans;writing-mode:lr-tb;fill:#808080;fill-opacity:1;fill-rule:nonzero;stroke:none"
         transform="matrix(1,0,0,-1,100,402.73926)"><tspan
           id="tspan326"
           y="0"
           x="0 4.1160002 12.978 21.84 25.718 34.594002 38.472 43.959999 52.514 58.268002 66.542 70.980003 76.426003 85.036003 92.316002 101.192 109.746 118.608 125.888 134.498">Inhibitory responses</tspan><tspan
           id="tspan328"
           y="398.89453"
           x="25.964848 36.436848 45.298847 58.934849 67.810844 76.420845 82.17485 86.612846 95.166847 100.09485 104.53284 111.81285 117.30085 121.17885 134.81485 143.67685 147.55486 156.12285 161.61086 165.48885 174.04285 182.90485 187.34285 196.21884 205.08084 208.95885 216.23885 224.84885">Number of stimulation pulses</tspan></text>
<text
         id="text330"
         style="font-variant:normal;font-weight:normal;font-size:14px;font-family:'DejaVu Sans';-inkscape-font-specification:DejaVuSans;writing-mode:lr-tb;fill:#808080;fill-opacity:1;fill-rule:nonzero;stroke:none"
         transform="matrix(0,1,1,0,24.268555,135.14844)"><tspan
           id="tspan332"
           y="0"
           x="0 8.8760004 16.562 25.129999 29.007999 37.618 46.493999 50.931999 59.793999 68.348 73.849998 87.486 96.054001 99.931999 103.81 111.146 119.756 128.632 133.07001 138.51601 147.12601 154.40601 163.282 171.836 180.698 187.978 196.588 201.026 204.90401 213.76601 219.254 227.864 236.74001 242.494 251.062">Scaled normalized response integral</tspan></text>
</g></g></svg>