<svg class="main-svg" xmlns="http://www.w3.org/2000/svg" xmlns:xlink="http://www.w3.org/1999/xlink" width="600" height="800" viewBox="0 0 600 800"><rect x="0" y="0" width="600" height="800" style="fill: rgb(255, 255, 255); fill-opacity: 1;"/><defs id="defs-042759"><g class="clips"><clipPath class="plotclip" id="clip042759xyplot"><rect width="533.7926509186352" height="726.1307961504812"/></clipPath><clipPath class="axesclip" id="clip042759x"><rect x="62.27034120734908" y="0" width="533.7926509186352" height="800"/></clipPath><clipPath class="axesclip" id="clip042759y"><rect x="0" y="23.740157480314956" width="600" height="726.1307961504812"/></clipPath><clipPath class="axesclip" id="clip042759xy"><rect x="62.27034120734908" y="23.740157480314956" width="533.7926509186352" height="726.1307961504812"/></clipPath></g><g class="gradients"/></defs><g class="bglayer"><rect class="bg" x="62.27034120734908" y="23.740157480314956" width="533.7926509186352" height="726.1307961504812" style="fill: rgb(255, 255, 255); fill-opacity: 1; stroke-width: 0;"/></g><g class="layer-below"><g class="imagelayer"/><g class="shapelayer"/></g><g class="cartesianlayer"><g class="subplot xy"><g class="layer-subplot"><g class="shapelayer"/><g class="imagelayer"/></g><g class="gridlayer"><g class="x"><path class="xgrid crisp" d="M0,23.740157480314956v726.1307961504812" transform="translate(79.49034120734908,0)" style="stroke: rgb(102, 102, 102); stroke-opacity: 0.1; stroke-width: 0.5px;"/><path class="xgrid crisp" d="M0,23.740157480314956v726.1307961504812" transform="translate(148.37034120734907,0)" style="stroke: rgb(102, 102, 102); stroke-opacity: 0.1; stroke-width: 0.5px;"/><path class="xgrid crisp" d="M0,23.740157480314956v726.1307961504812" transform="translate(234.46034120734907,0)" style="stroke: rgb(102, 102, 102); stroke-opacity: 0.1; stroke-width: 0.5px;"/><path class="xgrid crisp" d="M0,23.740157480314956v726.1307961504812" transform="translate(406.6503412073491,0)" style="stroke: rgb(102, 102, 102); stroke-opacity: 0.1; stroke-width: 0.5px;"/><path class="xgrid crisp" d="M0,23.740157480314956v726.1307961504812" transform="translate(578.8403412073492,0)" style="stroke: rgb(102, 102, 102); stroke-opacity: 0.1; stroke-width: 0.5px;"/></g><g class="y"><path class="ygrid crisp" d="M62.27034120734908,0h533.7926509186352" transform="translate(0,729.320157480315)" style="stroke: rgb(102, 102, 102); stroke-opacity: 0.1; stroke-width: 0.5px;"/><path class="ygrid crisp" d="M62.27034120734908,0h533.7926509186352" transform="translate(0,558.060157480315)" style="stroke: rgb(102, 102, 102); stroke-opacity: 0.1; stroke-width: 0.5px;"/><path class="ygrid crisp" d="M62.27034120734908,0h533.7926509186352" transform="translate(0,386.81015748031496)" style="stroke: rgb(102, 102, 102); stroke-opacity: 0.1; stroke-width: 0.5px;"/><path class="ygrid crisp" d="M62.27034120734908,0h533.7926509186352" transform="translate(0,215.55015748031497)" style="stroke: rgb(102, 102, 102); stroke-opacity: 0.1; stroke-width: 0.5px;"/><path class="ygrid crisp" d="M62.27034120734908,0h533.7926509186352" transform="translate(0,44.29015748031496)" style="stroke: rgb(102, 102, 102); stroke-opacity: 0.1; stroke-width: 0.5px;"/></g></g><g class="zerolinelayer"/><path class="xlines-below"/><path class="ylines-below"/><g class="overlines-below"/><g class="xaxislayer-below"/><g class="yaxislayer-below"/><g class="overaxes-below"/><g class="plot" transform="translate(62.27034120734908, 23.740157480314956)" clip-path="url(#clip042759xyplot)"><g class="imagelayer"/><g class="maplayer"/><g class="barlayer"/><g class="carpetlayer"/><g class="violinlayer"/><g class="boxlayer"/><g class="scatterlayer"><g class="trace scatter trace2e8a16" style="stroke-miterlimit: 2; opacity: 1;"><path class="js-line" d="M516.57,705.58L344.38,397.41L172.19,380.73L86.1,408.9L17.22,379.34" style="vector-effect: non-scaling-stroke; fill: none; stroke: rgb(0, 0, 255); stroke-opacity: 0.3; stroke-width: 1px; opacity: 1;"/><g class="points"/></g><g class="trace scatter trace883728" style="stroke-miterlimit: 2; opacity: 1;"><path class="js-line" d="M516.57,471.12L17.22,414L344.38,550.16L172.19,405.06L86.1,410.29" style="vector-effect: non-scaling-stroke; fill: none; stroke: rgb(0, 0, 255); stroke-opacity: 0.3; stroke-width: 1px; opacity: 1;"/><g class="points"/></g><g class="trace scatter trace1da17e" style="stroke-miterlimit: 2; opacity: 1;"><path class="js-line" d="M516.57,551.03L86.1,364.61L172.19,446.58L17.22,388.08L344.38,568.87" style="vector-effect: non-scaling-stroke; fill: none; stroke: rgb(0, 0, 255); stroke-opacity: 0.3; stroke-width: 1px; opacity: 1;"/><g class="points"/></g><g class="trace scatter tracef64645" style="stroke-miterlimit: 2; opacity: 1;"><path class="js-line" d="M516.57,592.61L344.38,507.61L86.1,392.48L17.22,382.99L172.19,420.66" style="vector-effect: non-scaling-stroke; fill: none; stroke: rgb(0, 0, 255); stroke-opacity: 0.3; stroke-width: 1px; opacity: 1;"/><g class="points"/></g><g class="trace scatter trace45e802" style="stroke-miterlimit: 2; opacity: 1;"><path class="js-line" d="M516.57,440.49L172.19,362.35L86.1,380.05L17.22,380.72L344.38,412.34" style="vector-effect: non-scaling-stroke; fill: none; stroke: rgb(0, 0, 255); stroke-opacity: 0.3; stroke-width: 1px; opacity: 1;"/><g class="points"/></g><g class="trace scatter trace81b05f" style="stroke-miterlimit: 2; opacity: 1;"><path class="js-line" d="M516.57,431.41L344.38,507.36L17.22,362.23L86.1,356.59L172.19,358.14" style="vector-effect: non-scaling-stroke; fill: none; stroke: rgb(0, 0, 255); stroke-opacity: 0.3; stroke-width: 1px; opacity: 1;"/><g class="points"/></g><g class="trace scatter tracee71890" style="stroke-miterlimit: 2; opacity: 1;"><path class="js-line" d="M516.57,563.93L172.19,502.15L86.1,463.29L344.38,572.5L17.22,378.16" style="vector-effect: non-scaling-stroke; fill: none; stroke: rgb(0, 0, 255); stroke-opacity: 0.3; stroke-width: 1px; opacity: 1;"/><g class="points"/></g><g class="trace scatter trace2a3d91" style="stroke-miterlimit: 2; opacity: 1;"><path class="js-line" d="M516.57,464.91L17.22,368.45L86.1,397.39L344.38,459.04L172.19,447.17" style="vector-effect: non-scaling-stroke; fill: none; stroke: rgb(0, 0, 255); stroke-opacity: 0.3; stroke-width: 1px; opacity: 1;"/><g class="points"/></g><g class="trace scatter trace9f8c48" style="stroke-miterlimit: 2; opacity: 1;"><path class="js-line" d="M516.57,360.87L17.22,362.37L344.38,362.15L86.1,362.94L172.19,362.08" style="vector-effect: non-scaling-stroke; fill: none; stroke: rgb(179, 179, 179); stroke-opacity: 0.3; stroke-width: 1px; opacity: 1;"/><g class="points"/></g><g class="trace scatter trace5f497d" style="stroke-miterlimit: 2; opacity: 1;"><path class="js-line" d="M516.57,354.37L172.19,361.69L17.22,357.75L344.38,361.7L86.1,361.86" style="vector-effect: non-scaling-stroke; fill: none; stroke: rgb(179, 179, 179); stroke-opacity: 0.3; stroke-width: 1px; opacity: 1;"/><g class="points"/></g><g class="trace scatter trace2b0c73" style="stroke-miterlimit: 2; opacity: 1;"><path class="js-line" d="M516.57,360.6L344.38,360.58L172.19,361.55L86.1,364.55L17.22,379.11" style="vector-effect: non-scaling-stroke; fill: none; stroke: rgb(179, 179, 179); stroke-opacity: 0.3; stroke-width: 1px; opacity: 1;"/><g class="points"/></g><g class="trace scatter traceda022f" style="stroke-miterlimit: 2; opacity: 1;"><path class="js-line" d="M516.57,359.21L344.38,352.63L17.22,379.25L86.1,361.8L172.19,389.42" style="vector-effect: non-scaling-stroke; fill: none; stroke: rgb(179, 179, 179); stroke-opacity: 0.3; stroke-width: 1px; opacity: 1;"/><g class="points"/></g><g class="trace scatter trace47fb8a" style="stroke-miterlimit: 2; opacity: 1;"><path class="js-line" d="M516.57,362.79L17.22,361.86L86.1,362.38L344.38,362.09L172.19,362.33" style="vector-effect: non-scaling-stroke; fill: none; stroke: rgb(179, 179, 179); stroke-opacity: 0.3; stroke-width: 1px; opacity: 1;"/><g class="points"/></g><g class="trace scatter trace65cb49" style="stroke-miterlimit: 2; opacity: 1;"><path class="js-line" d="M516.57,360.82L172.19,362.58L86.1,361.38L17.22,362.79L344.38,361.96" style="vector-effect: non-scaling-stroke; fill: none; stroke: rgb(179, 179, 179); stroke-opacity: 0.3; stroke-width: 1px; opacity: 1;"/><g class="points"/></g><g class="trace scatter tracea4667b" style="stroke-miterlimit: 2; opacity: 1;"><path class="js-line" d="M516.57,359.13L17.22,362.5L172.19,361.8L86.1,361.16" style="vector-effect: non-scaling-stroke; fill: none; stroke: rgb(179, 179, 179); stroke-opacity: 0.3; stroke-width: 1px; opacity: 1;"/><g class="points"/></g><g class="trace scatter tracea56491" style="stroke-miterlimit: 2; opacity: 1;"><path class="js-line" d="M516.57,359.56L17.22,362.69L86.1,359.73L344.38,362.06L172.19,362.08" style="vector-effect: non-scaling-stroke; fill: none; stroke: rgb(179, 179, 179); stroke-opacity: 0.3; stroke-width: 1px; opacity: 1;"/><g class="points"/></g><g class="trace scatter tracee0a60f" style="stroke-miterlimit: 2; opacity: 1;"><path class="js-line" d="M516.57,362.79L86.1,366.28L172.19,361.56L17.22,362.27L344.38,360.17" style="vector-effect: non-scaling-stroke; fill: none; stroke: rgb(179, 179, 179); stroke-opacity: 0.3; stroke-width: 1px; opacity: 1;"/><g class="points"/></g><g class="trace scatter trace33b444" style="stroke-miterlimit: 2; opacity: 1;"><path class="js-line" d="M516.57,359.14L172.19,360.07L344.38,360.08L86.1,361.88L17.22,361.95" style="vector-effect: non-scaling-stroke; fill: none; stroke: rgb(179, 179, 179); stroke-opacity: 0.3; stroke-width: 1px; opacity: 1;"/><g class="points"/></g><g class="trace scatter trace8972fb" style="stroke-miterlimit: 2; opacity: 1;"><path class="js-line" d="M516.57,358.88L344.38,360.83L86.1,362.26L172.19,357.27L17.22,362.92" style="vector-effect: non-scaling-stroke; fill: none; stroke: rgb(179, 179, 179); stroke-opacity: 0.3; stroke-width: 1px; opacity: 1;"/><g class="points"/></g><g class="trace scatter tracede68b2" style="stroke-miterlimit: 2; opacity: 1;"><path class="js-line" d="M516.57,361.23L86.1,369.44L344.38,374.24L17.22,373.68L172.19,360.44" style="vector-effect: non-scaling-stroke; fill: none; stroke: rgb(179, 179, 179); stroke-opacity: 0.3; stroke-width: 1px; opacity: 1;"/><g class="points"/></g><g class="trace scatter trace2ce0c4" style="stroke-miterlimit: 2; opacity: 1;"><path class="js-line" d="M516.57,358.98L17.22,368.37L86.1,371.16L344.38,360.75L172.19,362.29" style="vector-effect: non-scaling-stroke; fill: none; stroke: rgb(179, 179, 179); stroke-opacity: 0.3; stroke-width: 1px; opacity: 1;"/><g class="points"/></g><g class="trace scatter trace366382" style="stroke-miterlimit: 2; opacity: 1;"><path class="js-line" d="M516.57,393.03L86.1,365.79L17.22,367.17L172.19,367.82L344.38,378.26" style="vector-effect: non-scaling-stroke; fill: none; stroke: rgb(179, 179, 179); stroke-opacity: 0.3; stroke-width: 1px; opacity: 1;"/><g class="points"/></g><g class="trace scatter trace720fd8" style="stroke-miterlimit: 2; opacity: 1;"><path class="js-line" d="M516.57,361.38L17.22,362.12L86.1,362.38L172.19,361.39" style="vector-effect: non-scaling-stroke; fill: none; stroke: rgb(179, 179, 179); stroke-opacity: 0.3; stroke-width: 1px; opacity: 1;"/><g class="points"/></g><g class="trace scatter trace570fa6" style="stroke-miterlimit: 2; opacity: 1;"><path class="js-line" d="M516.57,349.51L172.19,362.24L17.22,369.23L86.1,360.96L344.38,351.3" style="vector-effect: non-scaling-stroke; fill: none; stroke: rgb(179, 179, 179); stroke-opacity: 0.3; stroke-width: 1px; opacity: 1;"/><g class="points"/></g><g class="trace scatter trace11798c" style="stroke-miterlimit: 2; opacity: 1;"><path class="js-line" d="M516.57,361.61L17.22,362.85L172.19,362.32" style="vector-effect: non-scaling-stroke; fill: none; stroke: rgb(179, 179, 179); stroke-opacity: 0.3; stroke-width: 1px; opacity: 1;"/><g class="points"/></g><g class="trace scatter tracedfac09" style="stroke-miterlimit: 2; opacity: 1;"><path class="js-line" d="M516.57,360.3L86.1,368.1L172.19,361.51L17.22,363.04L344.38,362.29" style="vector-effect: non-scaling-stroke; fill: none; stroke: rgb(179, 179, 179); stroke-opacity: 0.3; stroke-width: 1px; opacity: 1;"/><g class="points"/></g><g class="trace scatter tracee4b423" style="stroke-miterlimit: 2; opacity: 1;"><path class="js-line" d="M516.57,362.34L17.22,361.8L172.19,364.56L344.38,362.17" style="vector-effect: non-scaling-stroke; fill: none; stroke: rgb(179, 179, 179); stroke-opacity: 0.3; stroke-width: 1px; opacity: 1;"/><g class="points"/></g><g class="trace scatter tracea13004" style="stroke-miterlimit: 2; opacity: 1;"><path class="js-line" d="M516.57,362.17L344.38,355.7L17.22,368.63L86.1,361.35L172.19,362.82" style="vector-effect: non-scaling-stroke; fill: none; stroke: rgb(179, 179, 179); stroke-opacity: 0.3; stroke-width: 1px; opacity: 1;"/><g class="points"/></g><g class="trace scatter trace1a9715" style="stroke-miterlimit: 2; opacity: 1;"><path class="js-line" d="M516.57,359.99L17.22,361.27L86.1,359.03L344.38,358.53L172.19,360.9" style="vector-effect: non-scaling-stroke; fill: none; stroke: rgb(179, 179, 179); stroke-opacity: 0.3; stroke-width: 1px; opacity: 1;"/><g class="points"/></g><g class="trace scatter traceb791e6" style="stroke-miterlimit: 2; opacity: 1;"><path class="js-line" d="M516.57,348.03L172.19,363.63L17.22,384.32L86.1,362.71" style="vector-effect: non-scaling-stroke; fill: none; stroke: rgb(179, 179, 179); stroke-opacity: 0.3; stroke-width: 1px; opacity: 1;"/><g class="points"/></g><g class="trace scatter trace85c3d8" style="stroke-miterlimit: 2; opacity: 1;"><path class="js-line" d="M516.57,352.2L344.38,387.05L172.19,354.06L86.1,356.99L17.22,428.84" style="vector-effect: non-scaling-stroke; fill: none; stroke: rgb(179, 179, 179); stroke-opacity: 0.3; stroke-width: 1px; opacity: 1;"/><g class="points"/></g><g class="trace scatter traced0051e" style="stroke-miterlimit: 2; opacity: 1;"><path class="js-line" d="M516.57,422.56L344.38,380.39L172.19,373.23L86.1,366L17.22,363.51" style="vector-effect: non-scaling-stroke; fill: none; stroke: rgb(179, 179, 179); stroke-opacity: 0.3; stroke-width: 1px; opacity: 1;"/><g class="points"/></g><g class="trace scatter trace2fca84" style="stroke-miterlimit: 2; opacity: 1;"><path class="js-line" d="M516.57,359.91L344.38,358.12L17.22,361.26L172.19,360.66L86.1,361.02" style="vector-effect: non-scaling-stroke; fill: none; stroke: rgb(179, 179, 179); stroke-opacity: 0.3; stroke-width: 1px; opacity: 1;"/><g class="points"/></g><g class="trace scatter tracef01d0c" style="stroke-miterlimit: 2; opacity: 1;"><path class="js-line" d="M516.57,360.44L344.38,368.95L86.1,364.28L172.19,373.68L17.22,372.87" style="vector-effect: non-scaling-stroke; fill: none; stroke: rgb(179, 179, 179); stroke-opacity: 0.3; stroke-width: 1px; opacity: 1;"/><g class="points"/></g><g class="trace scatter trace1b2a19" style="stroke-miterlimit: 2; opacity: 1;"><path class="js-line" d="M516.57,342.24L86.1,355.41L344.38,360.34L17.22,363.16L172.19,358.7" style="vector-effect: non-scaling-stroke; fill: none; stroke: rgb(179, 179, 179); stroke-opacity: 0.3; stroke-width: 1px; opacity: 1;"/><g class="points"/></g><g class="trace scatter tracefdea93" style="stroke-miterlimit: 2; opacity: 1;"><path class="js-line" d="M516.57,340.35L344.38,349.44L17.22,362.83L172.19,358.3L86.1,360.55" style="vector-effect: non-scaling-stroke; fill: none; stroke: rgb(179, 179, 179); stroke-opacity: 0.3; stroke-width: 1px; opacity: 1;"/><g class="points"/></g><g class="trace scatter trace176193" style="stroke-miterlimit: 2; opacity: 1;"><path class="js-line" d="M516.57,361.75L344.38,360.84L172.19,383.74L17.22,364.64L86.1,363.06" style="vector-effect: non-scaling-stroke; fill: none; stroke: rgb(179, 179, 179); stroke-opacity: 0.3; stroke-width: 1px; opacity: 1;"/><g class="points"/></g><g class="trace scatter trace2c92d6" style="stroke-miterlimit: 2; opacity: 1;"><path class="js-line" d="M516.57,353.16L172.19,361.34L86.1,359.04L344.38,357.88L17.22,362.05" style="vector-effect: non-scaling-stroke; fill: none; stroke: rgb(179, 179, 179); stroke-opacity: 0.3; stroke-width: 1px; opacity: 1;"/><g class="points"/></g><g class="trace scatter trace5b9d63" style="stroke-miterlimit: 2; opacity: 1;"><path class="js-line" d="M516.57,360.88L17.22,362.67L86.1,373.31L344.38,362.51L172.19,356.59" style="vector-effect: non-scaling-stroke; fill: none; stroke: rgb(179, 179, 179); stroke-opacity: 0.3; stroke-width: 1px; opacity: 1;"/><g class="points"/></g><g class="trace scatter tracee9cebb" style="stroke-miterlimit: 2; opacity: 1;"><path class="js-line" d="M516.57,358.91L86.1,361.57L172.19,353.07L17.22,374.77L344.38,360.08" style="vector-effect: non-scaling-stroke; fill: none; stroke: rgb(179, 179, 179); stroke-opacity: 0.3; stroke-width: 1px; opacity: 1;"/><g class="points"/></g><g class="trace scatter trace299220" style="stroke-miterlimit: 2; opacity: 1;"><path class="js-line" d="M516.57,361.83L344.38,361.34L17.22,358.63L172.19,361.97L86.1,362.53" style="vector-effect: non-scaling-stroke; fill: none; stroke: rgb(179, 179, 179); stroke-opacity: 0.3; stroke-width: 1px; opacity: 1;"/><g class="points"/></g><g class="trace scatter trace5763fc" style="stroke-miterlimit: 2; opacity: 1;"><path class="js-line" d="M516.57,360.95L86.1,362.64L172.19,362.64L344.38,360.45L17.22,361.78" style="vector-effect: non-scaling-stroke; fill: none; stroke: rgb(179, 179, 179); stroke-opacity: 0.3; stroke-width: 1px; opacity: 1;"/><g class="points"/></g><g class="trace scatter trace8777e7" style="stroke-miterlimit: 2; opacity: 1;"><path class="js-line" d="M516.57,355.69L172.19,356.14L86.1,368.78L17.22,381.42L344.38,359.02" style="vector-effect: non-scaling-stroke; fill: none; stroke: rgb(179, 179, 179); stroke-opacity: 0.3; stroke-width: 1px; opacity: 1;"/><g class="points"/></g><g class="trace scatter trace47a336" style="stroke-miterlimit: 2; opacity: 1;"><path class="js-line" d="M516.57,362.08L86.1,360.81L17.22,365.55L344.38,368.31L172.19,361.28" style="vector-effect: non-scaling-stroke; fill: none; stroke: rgb(179, 179, 179); stroke-opacity: 0.3; stroke-width: 1px; opacity: 1;"/><g class="points"/></g><g class="trace scatter tracea01b4e" style="stroke-miterlimit: 2; opacity: 1;"><path class="js-line" d="M516.57,367.56L344.38,371.69L86.1,362.95L172.19,368.7L17.22,362.72" style="vector-effect: non-scaling-stroke; fill: none; stroke: rgb(179, 179, 179); stroke-opacity: 0.3; stroke-width: 1px; opacity: 1;"/><g class="points"/></g><g class="trace scatter tracec1c51e" style="stroke-miterlimit: 2; opacity: 1;"><path class="js-line" d="M516.57,362.27L86.1,363.98L344.38,362.34L172.19,362.8L17.22,366.11" style="vector-effect: non-scaling-stroke; fill: none; stroke: rgb(179, 179, 179); stroke-opacity: 0.3; stroke-width: 1px; opacity: 1;"/><g class="points"/></g><g class="trace scatter trace0d4a5f" style="stroke-miterlimit: 2; opacity: 1;"><path class="js-line" d="M516.57,362.81L344.38,361.05L172.19,360.75L17.22,361.93L86.1,363.3" style="vector-effect: non-scaling-stroke; fill: none; stroke: rgb(179, 179, 179); stroke-opacity: 0.3; stroke-width: 1px; opacity: 1;"/><g class="points"/></g><g class="trace scatter trace6cbf1e" style="stroke-miterlimit: 2; opacity: 1;"><path class="js-line" d="M516.57,297.37L86.1,354.26L17.22,360.87L172.19,312.5L344.38,265.61" style="vector-effect: non-scaling-stroke; fill: none; stroke: rgb(255, 0, 0); stroke-opacity: 0.3; stroke-width: 1px; opacity: 1;"/><g class="points"/></g><g class="trace scatter tracecb859f" style="stroke-miterlimit: 2; opacity: 1;"><path class="js-line" d="M516.57,339.51L86.1,357.84L172.19,354.11L17.22,362.36L344.38,341.56" style="vector-effect: non-scaling-stroke; fill: none; stroke: rgb(255, 0, 0); stroke-opacity: 0.3; stroke-width: 1px; opacity: 1;"/><g class="points"/></g><g class="trace scatter trace7b0ea3" style="stroke-miterlimit: 2; opacity: 1;"><path class="js-line" d="M516.57,288.66L172.19,320.43L86.1,339.46L17.22,355.35L344.38,312.54" style="vector-effect: non-scaling-stroke; fill: none; stroke: rgb(255, 0, 0); stroke-opacity: 0.3; stroke-width: 1px; opacity: 1;"/><g class="points"/></g><g class="trace scatter tracec58d08" style="stroke-miterlimit: 2; opacity: 1;"><path class="js-line" d="M516.57,354.37L17.22,361.69L344.38,357.19L86.1,354.73L172.19,350.08" style="vector-effect: non-scaling-stroke; fill: none; stroke: rgb(255, 0, 0); stroke-opacity: 0.3; stroke-width: 1px; opacity: 1;"/><g class="points"/></g><g class="trace scatter trace449ed4" style="stroke-miterlimit: 2; opacity: 1;"><path class="js-line" d="M516.57,346.35L344.38,340.39L86.1,359.27L172.19,355.11L17.22,362.82" style="vector-effect: non-scaling-stroke; fill: none; stroke: rgb(255, 0, 0); stroke-opacity: 0.3; stroke-width: 1px; opacity: 1;"/><g class="points"/></g><g class="trace scatter tracef15659" style="stroke-miterlimit: 2; opacity: 1;"><path class="js-line" d="M516.57,377.75L17.22,362.31L344.38,344.25L86.1,346.92L172.19,306.35" style="vector-effect: non-scaling-stroke; fill: none; stroke: rgb(255, 0, 0); stroke-opacity: 0.3; stroke-width: 1px; opacity: 1;"/><g class="points"/></g><g class="trace scatter tracef11426" style="stroke-miterlimit: 2; opacity: 1;"><path class="js-line" d="M516.57,130.13L17.22,362.17L344.38,188.25L172.19,310.93L86.1,336.6" style="vector-effect: non-scaling-stroke; fill: none; stroke: rgb(255, 0, 0); stroke-opacity: 0.3; stroke-width: 1px; opacity: 1;"/><g class="points"/></g><g class="trace scatter tracebba9cb" style="stroke-miterlimit: 2; opacity: 1;"><path class="js-line" d="M516.57,216.23L86.1,317.63L344.38,221.06L17.22,349.37L172.19,295.63" style="vector-effect: non-scaling-stroke; fill: none; stroke: rgb(255, 0, 0); stroke-opacity: 0.3; stroke-width: 1px; opacity: 1;"/><g class="points"/></g><g class="trace scatter traceede0db" style="stroke-miterlimit: 2; opacity: 1;"><path class="js-line" d="M516.57,109.26L86.1,351.08L172.19,318.18L17.22,361.61L344.38,70.44" style="vector-effect: non-scaling-stroke; fill: none; stroke: rgb(255, 0, 0); stroke-opacity: 0.3; stroke-width: 1px; opacity: 1;"/><g class="points"/></g><g class="trace scatter trace128955" style="stroke-miterlimit: 2; opacity: 1;"><path class="js-line" d="M516.57,310.64L86.1,346.49L172.19,337.09L17.22,360.67L344.38,308.89" style="vector-effect: non-scaling-stroke; fill: none; stroke: rgb(255, 0, 0); stroke-opacity: 0.3; stroke-width: 1px; opacity: 1;"/><g class="points"/></g><g class="trace scatter trace33b8b5" style="stroke-miterlimit: 2; opacity: 1;"><path class="js-line" d="M516.57,327.07L172.19,347.73L86.1,357.57L344.38,329.27L17.22,361.79" style="vector-effect: non-scaling-stroke; fill: none; stroke: rgb(255, 0, 0); stroke-opacity: 0.3; stroke-width: 1px; opacity: 1;"/><g class="points"/></g><g class="trace scatter trace12afa3" style="stroke-miterlimit: 2; opacity: 1;"><path class="js-line" d="M516.57,295.75L172.19,358.74L86.1,353.85L344.38,335.47L17.22,360.4" style="vector-effect: non-scaling-stroke; fill: none; stroke: rgb(255, 0, 0); stroke-opacity: 0.3; stroke-width: 1px; opacity: 1;"/><g class="points"/></g><g class="trace scatter tracef3edc5" style="stroke-miterlimit: 2; opacity: 1;"><path class="js-line" d="M516.57,313.42L86.1,323.59L17.22,343.92L344.38,258.92L172.19,262.24" style="vector-effect: non-scaling-stroke; fill: none; stroke: rgb(255, 0, 0); stroke-opacity: 0.3; stroke-width: 1px; opacity: 1;"/><g class="points"/></g><g class="trace scatter trace0c621a" style="stroke-miterlimit: 2; opacity: 1;"><path class="js-line" d="M516.57,300.68L86.1,340.12L17.22,360.33L172.19,336.91L344.38,323.45" style="vector-effect: non-scaling-stroke; fill: none; stroke: rgb(255, 0, 0); stroke-opacity: 0.3; stroke-width: 1px; opacity: 1;"/><g class="points"/></g><g class="trace scatter tracec7e96f" style="stroke-miterlimit: 2; opacity: 1;"><path class="js-line" d="M516.57,151.03L86.1,247.32L172.19,123.53L344.38,209.34L17.22,348.76" style="vector-effect: non-scaling-stroke; fill: none; stroke: rgb(255, 0, 0); stroke-opacity: 0.3; stroke-width: 1px; opacity: 1;"/><g class="points"/></g><g class="trace scatter trace906863" style="stroke-miterlimit: 2; opacity: 1;"><path class="js-line" d="M516.57,358.61L86.1,361.78L344.38,334.34L17.22,360.27L172.19,361.6" style="vector-effect: non-scaling-stroke; fill: none; stroke: rgb(255, 0, 0); stroke-opacity: 0.3; stroke-width: 1px; opacity: 1;"/><g class="points"/></g><g class="trace scatter trace20b8fa" style="stroke-miterlimit: 2; opacity: 1;"><path class="js-line" d="M516.57,325.3L86.1,351.52L344.38,314.82L17.22,373.98L172.19,355.78" style="vector-effect: non-scaling-stroke; fill: none; stroke: rgb(255, 0, 0); stroke-opacity: 0.3; stroke-width: 1px; opacity: 1;"/><g class="points"/></g><g class="trace scatter trace88f714" style="stroke-miterlimit: 2; opacity: 1;"><path class="js-line" d="M516.57,324.06L86.1,357.47L172.19,345.29L17.22,359.17L344.38,338.68" style="vector-effect: non-scaling-stroke; fill: none; stroke: rgb(255, 0, 0); stroke-opacity: 0.3; stroke-width: 1px; opacity: 1;"/><g class="points"/></g><g class="trace scatter tracecaac82" style="stroke-miterlimit: 2; opacity: 1;"><path class="js-line" d="M516.57,164.47L17.22,349.82L344.38,235.14L172.19,261.61L86.1,308.92" style="vector-effect: non-scaling-stroke; fill: none; stroke: rgb(255, 0, 0); stroke-opacity: 0.3; stroke-width: 1px; opacity: 1;"/><g class="points"/></g><g class="trace scatter trace67c953" style="stroke-miterlimit: 2; opacity: 1;"><path class="js-line" d="M516.57,349.83L172.19,341.15L17.22,358.06L344.38,334.36L86.1,353.52" style="vector-effect: non-scaling-stroke; fill: none; stroke: rgb(255, 0, 0); stroke-opacity: 0.3; stroke-width: 1px; opacity: 1;"/><g class="points"/></g><g class="trace scatter trace8ce28f" style="stroke-miterlimit: 2; opacity: 1;"><path class="js-line" d="M516.57,303.16L172.19,338.99L86.1,354.22L344.38,291.86L17.22,357.88" style="vector-effect: non-scaling-stroke; fill: none; stroke: rgb(255, 0, 0); stroke-opacity: 0.3; stroke-width: 1px; opacity: 1;"/><g class="points"/></g><g class="trace scatter trace92bdd7" style="stroke-miterlimit: 2; opacity: 1;"><path class="js-line" d="M516.57,225.72L344.38,20.55L172.19,338.64L17.22,354.18L86.1,326.48" style="vector-effect: non-scaling-stroke; fill: none; stroke: rgb(255, 0, 0); stroke-opacity: 0.3; stroke-width: 1px; opacity: 1;"/><g class="points"/></g><g class="trace scatter tracef9a210" style="stroke-miterlimit: 2; opacity: 1;"><path class="js-line" d="M516.57,281.78L86.1,342.46L17.22,355.84L344.38,315.94L172.19,336.05" style="vector-effect: non-scaling-stroke; fill: none; stroke: rgb(255, 0, 0); stroke-opacity: 0.3; stroke-width: 1px; opacity: 1;"/><g class="points"/></g><g class="trace scatter trace6a61d4" style="stroke-miterlimit: 2; opacity: 1;"><path class="js-line" d="M17.22,381.75L172.19,415.36L344.38,496.91L516.57,527.63" style="vector-effect: non-scaling-stroke; fill: none; stroke: rgb(0, 0, 255); stroke-opacity: 1; stroke-width: 4px; opacity: 1;"/><g class="points"/></g><g class="trace scatter traceb21168" style="stroke-miterlimit: 2; opacity: 1;"><path class="js-line" d="M17.22,387.19L17.22,376.3" style="vector-effect: non-scaling-stroke; fill: none; stroke: rgb(128, 128, 128); stroke-opacity: 1; stroke-width: 1px; opacity: 1;"/><path class="js-line" d="M86.1,408.43L86.1,384.97" style="vector-effect: non-scaling-stroke; fill: none; stroke: rgb(128, 128, 128); stroke-opacity: 1; stroke-width: 1px; opacity: 1;"/><path class="js-line" d="M172.19,432.75L172.19,397.97" style="vector-effect: non-scaling-stroke; fill: none; stroke: rgb(128, 128, 128); stroke-opacity: 1; stroke-width: 1px; opacity: 1;"/><path class="js-line" d="M344.38,520.98L344.38,472.84" style="vector-effect: non-scaling-stroke; fill: none; stroke: rgb(128, 128, 128); stroke-opacity: 1; stroke-width: 1px; opacity: 1;"/><path class="js-line" d="M516.57,560.84L516.57,494.43" style="vector-effect: non-scaling-stroke; fill: none; stroke: rgb(128, 128, 128); stroke-opacity: 1; stroke-width: 1px; opacity: 1;"/><g class="points"><path class="point" transform="translate(17.22,387.19)" d="M5.6,0H-5.6" style="opacity: 1; stroke-width: 1px; fill: rgb(0, 0, 255); fill-opacity: 1; stroke: rgb(128, 128, 128); stroke-opacity: 1;"/><path class="point" transform="translate(17.22,376.3)" d="M5.6,0H-5.6" style="opacity: 1; stroke-width: 1px; fill: rgb(0, 0, 255); fill-opacity: 1; stroke: rgb(128, 128, 128); stroke-opacity: 1;"/><path class="point" transform="translate(86.1,408.43)" d="M5.6,0H-5.6" style="opacity: 1; stroke-width: 1px; fill: rgb(0, 0, 255); fill-opacity: 1; stroke: rgb(128, 128, 128); stroke-opacity: 1;"/><path class="point" transform="translate(86.1,384.97)" d="M5.6,0H-5.6" style="opacity: 1; stroke-width: 1px; fill: rgb(0, 0, 255); fill-opacity: 1; stroke: rgb(128, 128, 128); stroke-opacity: 1;"/><path class="point" transform="translate(172.19,432.75)" d="M5.6,0H-5.6" style="opacity: 1; stroke-width: 1px; fill: rgb(0, 0, 255); fill-opacity: 1; stroke: rgb(128, 128, 128); stroke-opacity: 1;"/><path class="point" transform="translate(172.19,397.97)" d="M5.6,0H-5.6" style="opacity: 1; stroke-width: 1px; fill: rgb(0, 0, 255); fill-opacity: 1; stroke: rgb(128, 128, 128); stroke-opacity: 1;"/><path class="point" transform="translate(344.38,520.98)" d="M5.6,0H-5.6" style="opacity: 1; stroke-width: 1px; fill: rgb(0, 0, 255); fill-opacity: 1; stroke: rgb(128, 128, 128); stroke-opacity: 1;"/><path class="point" transform="translate(344.38,472.84)" d="M5.6,0H-5.6" style="opacity: 1; stroke-width: 1px; fill: rgb(0, 0, 255); fill-opacity: 1; stroke: rgb(128, 128, 128); stroke-opacity: 1;"/><path class="point" transform="translate(516.57,560.84)" d="M5.6,0H-5.6" style="opacity: 1; stroke-width: 1px; fill: rgb(0, 0, 255); fill-opacity: 1; stroke: rgb(128, 128, 128); stroke-opacity: 1;"/><path class="point" transform="translate(516.57,494.43)" d="M5.6,0H-5.6" style="opacity: 1; stroke-width: 1px; fill: rgb(0, 0, 255); fill-opacity: 1; stroke: rgb(128, 128, 128); stroke-opacity: 1;"/></g></g><g class="trace scatter tracef0c507" style="stroke-miterlimit: 2; opacity: 1;"><path class="js-line" d="M17.22,367.5L86.1,363.03L172.19,363.08L516.57,361.09" style="vector-effect: non-scaling-stroke; fill: none; stroke: rgb(179, 179, 179); stroke-opacity: 1; stroke-width: 4px; opacity: 1;"/><g class="points"/></g><g class="trace scatter trace65c514" style="stroke-miterlimit: 2; opacity: 1;"><path class="js-line" d="M17.22,369.41L17.22,365.59" style="vector-effect: non-scaling-stroke; fill: none; stroke: rgb(128, 128, 128); stroke-opacity: 1; stroke-width: 1px; opacity: 1;"/><path class="js-line" d="M86.1,363.6L86.1,362.46" style="vector-effect: non-scaling-stroke; fill: none; stroke: rgb(128, 128, 128); stroke-opacity: 1; stroke-width: 1px; opacity: 1;"/><path class="js-line" d="M172.19,364.18L172.19,361.98" style="vector-effect: non-scaling-stroke; fill: none; stroke: rgb(128, 128, 128); stroke-opacity: 1; stroke-width: 1px; opacity: 1;"/><path class="js-line" d="M344.38,363.68L344.38,361.31" style="vector-effect: non-scaling-stroke; fill: none; stroke: rgb(128, 128, 128); stroke-opacity: 1; stroke-width: 1px; opacity: 1;"/><path class="js-line" d="M516.57,363.13L516.57,359.04" style="vector-effect: non-scaling-stroke; fill: none; stroke: rgb(128, 128, 128); stroke-opacity: 1; stroke-width: 1px; opacity: 1;"/><g class="points"><path class="point" transform="translate(17.22,369.41)" d="M5.6,0H-5.6" style="opacity: 1; stroke-width: 1px; fill: rgb(179, 179, 179); fill-opacity: 1; stroke: rgb(128, 128, 128); stroke-opacity: 1;"/><path class="point" transform="translate(17.22,365.59)" d="M5.6,0H-5.6" style="opacity: 1; stroke-width: 1px; fill: rgb(179, 179, 179); fill-opacity: 1; stroke: rgb(128, 128, 128); stroke-opacity: 1;"/><path class="point" transform="translate(86.1,363.6)" d="M5.6,0H-5.6" style="opacity: 1; stroke-width: 1px; fill: rgb(179, 179, 179); fill-opacity: 1; stroke: rgb(128, 128, 128); stroke-opacity: 1;"/><path class="point" transform="translate(86.1,362.46)" d="M5.6,0H-5.6" style="opacity: 1; stroke-width: 1px; fill: rgb(179, 179, 179); fill-opacity: 1; stroke: rgb(128, 128, 128); stroke-opacity: 1;"/><path class="point" transform="translate(172.19,364.18)" d="M5.6,0H-5.6" style="opacity: 1; stroke-width: 1px; fill: rgb(179, 179, 179); fill-opacity: 1; stroke: rgb(128, 128, 128); stroke-opacity: 1;"/><path class="point" transform="translate(172.19,361.98)" d="M5.6,0H-5.6" style="opacity: 1; stroke-width: 1px; fill: rgb(179, 179, 179); fill-opacity: 1; stroke: rgb(128, 128, 128); stroke-opacity: 1;"/><path class="point" transform="translate(344.38,363.68)" d="M5.6,0H-5.6" style="opacity: 1; stroke-width: 1px; fill: rgb(179, 179, 179); fill-opacity: 1; stroke: rgb(128, 128, 128); stroke-opacity: 1;"/><path class="point" transform="translate(344.38,361.31)" d="M5.6,0H-5.6" style="opacity: 1; stroke-width: 1px; fill: rgb(179, 179, 179); fill-opacity: 1; stroke: rgb(128, 128, 128); stroke-opacity: 1;"/><path class="point" transform="translate(516.57,363.13)" d="M5.6,0H-5.6" style="opacity: 1; stroke-width: 1px; fill: rgb(179, 179, 179); fill-opacity: 1; stroke: rgb(128, 128, 128); stroke-opacity: 1;"/><path class="point" transform="translate(516.57,359.04)" d="M5.6,0H-5.6" style="opacity: 1; stroke-width: 1px; fill: rgb(179, 179, 179); fill-opacity: 1; stroke: rgb(128, 128, 128); stroke-opacity: 1;"/></g></g><g class="trace scatter traceb089e8" style="stroke-miterlimit: 2; opacity: 1;"><path class="js-line" d="M17.22,358.42L86.1,341L172.19,320.38L344.38,277.93L516.57,282.22" style="vector-effect: non-scaling-stroke; fill: none; stroke: rgb(255, 0, 0); stroke-opacity: 1; stroke-width: 4px; opacity: 1;"/><g class="points"/></g><g class="trace scatter trace98ea9f" style="stroke-miterlimit: 2; opacity: 1;"><path class="js-line" d="M17.22,359.72L17.22,357.12" style="vector-effect: non-scaling-stroke; fill: none; stroke: rgb(128, 128, 128); stroke-opacity: 1; stroke-width: 1px; opacity: 1;"/><path class="js-line" d="M86.1,346.19L86.1,335.81" style="vector-effect: non-scaling-stroke; fill: none; stroke: rgb(128, 128, 128); stroke-opacity: 1; stroke-width: 1px; opacity: 1;"/><path class="js-line" d="M172.19,331.03L172.19,309.72" style="vector-effect: non-scaling-stroke; fill: none; stroke: rgb(128, 128, 128); stroke-opacity: 1; stroke-width: 1px; opacity: 1;"/><path class="js-line" d="M344.38,296.23L344.38,259.62" style="vector-effect: non-scaling-stroke; fill: none; stroke: rgb(128, 128, 128); stroke-opacity: 1; stroke-width: 1px; opacity: 1;"/><path class="js-line" d="M516.57,298.4L516.57,266.05" style="vector-effect: non-scaling-stroke; fill: none; stroke: rgb(128, 128, 128); stroke-opacity: 1; stroke-width: 1px; opacity: 1;"/><g class="points"><path class="point" transform="translate(17.22,359.72)" d="M5.6,0H-5.6" style="opacity: 1; stroke-width: 1px; fill: rgb(255, 0, 0); fill-opacity: 1; stroke: rgb(128, 128, 128); stroke-opacity: 1;"/><path class="point" transform="translate(17.22,357.12)" d="M5.6,0H-5.6" style="opacity: 1; stroke-width: 1px; fill: rgb(255, 0, 0); fill-opacity: 1; stroke: rgb(128, 128, 128); stroke-opacity: 1;"/><path class="point" transform="translate(86.1,346.19)" d="M5.6,0H-5.6" style="opacity: 1; stroke-width: 1px; fill: rgb(255, 0, 0); fill-opacity: 1; stroke: rgb(128, 128, 128); stroke-opacity: 1;"/><path class="point" transform="translate(86.1,335.81)" d="M5.6,0H-5.6" style="opacity: 1; stroke-width: 1px; fill: rgb(255, 0, 0); fill-opacity: 1; stroke: rgb(128, 128, 128); stroke-opacity: 1;"/><path class="point" transform="translate(172.19,331.03)" d="M5.6,0H-5.6" style="opacity: 1; stroke-width: 1px; fill: rgb(255, 0, 0); fill-opacity: 1; stroke: rgb(128, 128, 128); stroke-opacity: 1;"/><path class="point" transform="translate(172.19,309.72)" d="M5.6,0H-5.6" style="opacity: 1; stroke-width: 1px; fill: rgb(255, 0, 0); fill-opacity: 1; stroke: rgb(128, 128, 128); stroke-opacity: 1;"/><path class="point" transform="translate(344.38,296.23)" d="M5.6,0H-5.6" style="opacity: 1; stroke-width: 1px; fill: rgb(255, 0, 0); fill-opacity: 1; stroke: rgb(128, 128, 128); stroke-opacity: 1;"/><path class="point" transform="translate(344.38,259.62)" d="M5.6,0H-5.6" style="opacity: 1; stroke-width: 1px; fill: rgb(255, 0, 0); fill-opacity: 1; stroke: rgb(128, 128, 128); stroke-opacity: 1;"/><path class="point" transform="translate(516.57,298.4)" d="M5.6,0H-5.6" style="opacity: 1; stroke-width: 1px; fill: rgb(255, 0, 0); fill-opacity: 1; stroke: rgb(128, 128, 128); stroke-opacity: 1;"/><path class="point" transform="translate(516.57,266.05)" d="M5.6,0H-5.6" style="opacity: 1; stroke-width: 1px; fill: rgb(255, 0, 0); fill-opacity: 1; stroke: rgb(128, 128, 128); stroke-opacity: 1;"/></g></g></g></g><g class="overplot"/><path class="xlines-above crisp" d="M61.27034120734908,750.3709536307961H596.0629921259842" style="fill: none; stroke-width: 1px; stroke: rgb(127, 127, 127); stroke-opacity: 1;"/><path class="ylines-above crisp" d="M61.77034120734908,23.740157480314956V749.8709536307961" style="fill: none; stroke-width: 1px; stroke: rgb(127, 127, 127); stroke-opacity: 1;"/><g class="overlines-above"/><g class="xaxislayer-above"><path class="xtick ticks crisp" d="M0,749.8709536307961v-5" transform="translate(79.49034120734908,0)" style="stroke: rgb(127, 127, 127); stroke-opacity: 1; stroke-width: 1px;"/><path class="xtick ticks crisp" d="M0,749.8709536307961v-5" transform="translate(148.37034120734907,0)" style="stroke: rgb(127, 127, 127); stroke-opacity: 1; stroke-width: 1px;"/><path class="xtick ticks crisp" d="M0,749.8709536307961v-5" transform="translate(234.46034120734907,0)" style="stroke: rgb(127, 127, 127); stroke-opacity: 1; stroke-width: 1px;"/><path class="xtick ticks crisp" d="M0,749.8709536307961v-5" transform="translate(406.6503412073491,0)" style="stroke: rgb(127, 127, 127); stroke-opacity: 1; stroke-width: 1px;"/><path class="xtick ticks crisp" d="M0,749.8709536307961v-5" transform="translate(578.8403412073492,0)" style="stroke: rgb(127, 127, 127); stroke-opacity: 1; stroke-width: 1px;"/><g class="xtick"><text text-anchor="middle" x="0" y="767.670953630796" transform="translate(79.49034120734908,0)" style="font-family: 'DejaVu Sans'; font-size: 14px; fill: rgb(128, 128, 128); fill-opacity: 1; white-space: pre;">1</text></g><g class="xtick"><text text-anchor="middle" x="0" y="767.670953630796" transform="translate(148.37034120734907,0)" style="font-family: 'DejaVu Sans'; font-size: 14px; fill: rgb(128, 128, 128); fill-opacity: 1; white-space: pre;">5</text></g><g class="xtick"><text text-anchor="middle" x="0" y="767.670953630796" transform="translate(234.46034120734907,0)" style="font-family: 'DejaVu Sans'; font-size: 14px; fill: rgb(128, 128, 128); fill-opacity: 1; white-space: pre;">10</text></g><g class="xtick"><text text-anchor="middle" x="0" y="767.670953630796" transform="translate(406.6503412073491,0)" style="font-family: 'DejaVu Sans'; font-size: 14px; fill: rgb(128, 128, 128); fill-opacity: 1; white-space: pre;">20</text></g><g class="xtick"><text text-anchor="middle" x="0" y="767.670953630796" transform="translate(578.8403412073492,0)" style="font-family: 'DejaVu Sans'; font-size: 14px; fill: rgb(128, 128, 128); fill-opacity: 1; white-space: pre;">30</text></g></g><g class="yaxislayer-above"><path class="ytick ticks crisp" d="M62.27034120734908,0h5" transform="translate(0,729.320157480315)" style="stroke: rgb(127, 127, 127); stroke-opacity: 1; stroke-width: 1px;"/><path class="ytick ticks crisp" d="M62.27034120734908,0h5" transform="translate(0,558.060157480315)" style="stroke: rgb(127, 127, 127); stroke-opacity: 1; stroke-width: 1px;"/><path class="ytick ticks crisp" d="M62.27034120734908,0h5" transform="translate(0,386.81015748031496)" style="stroke: rgb(127, 127, 127); stroke-opacity: 1; stroke-width: 1px;"/><path class="ytick ticks crisp" d="M62.27034120734908,0h5" transform="translate(0,215.55015748031497)" style="stroke: rgb(127, 127, 127); stroke-opacity: 1; stroke-width: 1px;"/><path class="ytick ticks crisp" d="M62.27034120734908,0h5" transform="translate(0,44.29015748031496)" style="stroke: rgb(127, 127, 127); stroke-opacity: 1; stroke-width: 1px;"/><g class="ytick"><text text-anchor="end" x="58.47034120734908" y="4.8999999999999995" transform="translate(0,729.320157480315)" style="font-family: 'DejaVu Sans'; font-size: 14px; fill: rgb(128, 128, 128); fill-opacity: 1; white-space: pre;">-1.0</text></g><g class="ytick"><text text-anchor="end" x="58.47034120734908" y="4.8999999999999995" transform="translate(0,558.060157480315)" style="font-family: 'DejaVu Sans'; font-size: 14px; fill: rgb(128, 128, 128); fill-opacity: 1; white-space: pre;">-0.5</text></g><g class="ytick"><text text-anchor="end" x="58.47034120734908" y="4.8999999999999995" transform="translate(0,386.81015748031496)" style="font-family: 'DejaVu Sans'; font-size: 14px; fill: rgb(128, 128, 128); fill-opacity: 1; white-space: pre;">0.0</text></g><g class="ytick"><text text-anchor="end" x="58.47034120734908" y="4.8999999999999995" transform="translate(0,215.55015748031497)" style="font-family: 'DejaVu Sans'; font-size: 14px; fill: rgb(128, 128, 128); fill-opacity: 1; white-space: pre;">0.5</text></g><g class="ytick"><text text-anchor="end" x="58.47034120734908" y="4.8999999999999995" transform="translate(0,44.29015748031496)" style="font-family: 'DejaVu Sans'; font-size: 14px; fill: rgb(128, 128, 128); fill-opacity: 1; white-space: pre;">1.0</text></g></g><g class="overaxes-above"/></g></g><g class="polarlayer"/><g class="ternarylayer"/><g class="geolayer"/><g class="pielayer"/><g class="glimages"/><defs id="topdefs-042759"><g class="clips"/><clipPath id="legend042759"><rect width="190" height="74" x="0" y="0"/></clipPath></defs><g class="layer-above"><g class="imagelayer"/><g class="shapelayer"/></g><g class="infolayer"><g class="g-gtitle"/><g class="legend" pointer-events="all" transform="translate(90, 42.80000000000002)"><rect class="bg" shape-rendering="crispEdges" width="190" height="74" x="0" y="0" style="stroke: rgb(128, 128, 128); stroke-opacity: 1; fill: rgb(255, 255, 255); fill-opacity: 1; stroke-width: 0px;"/><g class="scrollbox" transform="translate(0, 0)" clip-path="url(#legend042759)"><g class="groups"><g class="traces" transform="translate(0, 15.6)" style="opacity: 1;"><g class="layers" style="opacity: 1;"><g class="legendfill"/><g class="legendlines"><path class="js-line" d="M5,0h30" style="fill: none; stroke: rgb(0, 0, 255); stroke-opacity: 1; stroke-width: 4px;"/></g><g class="legendsymbols"><g class="legendpoints"/></g></g><text class="legendtext user-select-none" text-anchor="start" x="40" y="5.46" style="font-family: 'DejaVu Sans'; font-size: 14px; fill: rgb(128, 128, 128); fill-opacity: 1; white-space: pre;">Excitatory responses</text><rect class="legendtoggle" pointer-events="all" x="0" y="-10.6" width="230" height="21.2" style="cursor: pointer; fill: rgb(0, 0, 0); fill-opacity: 0;"/></g><g class="traces" transform="translate(0, 36.8)" style="opacity: 1;"><g class="layers" style="opacity: 1;"><g class="legendfill"/><g class="legendlines"><path class="js-line" d="M5,0h30" style="fill: none; stroke: rgb(179, 179, 179); stroke-opacity: 1; stroke-width: 4px;"/></g><g class="legendsymbols"><g class="legendpoints"/></g></g><text class="legendtext user-select-none" text-anchor="start" x="40" y="5.46" style="font-family: 'DejaVu Sans'; font-size: 14px; fill: rgb(128, 128, 128); fill-opacity: 1; white-space: pre;">No responses</text><rect class="legendtoggle" pointer-events="all" x="0" y="-10.6" width="230" height="21.2" style="cursor: pointer; fill: rgb(0, 0, 0); fill-opacity: 0;"/></g><g class="traces" transform="translate(0, 58)" style="opacity: 1;"><g class="layers" style="opacity: 1;"><g class="legendfill"/><g class="legendlines"><path class="js-line" d="M5,0h30" style="fill: none; stroke: rgb(255, 0, 0); stroke-opacity: 1; stroke-width: 4px;"/></g><g class="legendsymbols"><g class="legendpoints"/></g></g><text class="legendtext user-select-none" text-anchor="start" x="40" y="5.46" style="font-family: 'DejaVu Sans'; font-size: 14px; fill: rgb(128, 128, 128); fill-opacity: 1; white-space: pre;">Inhibitory responses</text><rect class="legendtoggle" pointer-events="all" x="0" y="-10.6" width="230" height="21.2" style="cursor: pointer; fill: rgb(0, 0, 0); fill-opacity: 0;"/></g></g></g><rect class="scrollbar" rx="20" ry="2" width="0" height="0" style="fill: rgb(128, 139, 164); fill-opacity: 1;"/></g><g class="g-xtitle" transform="translate(0,-5.714703630796066)"><text class="xtitle" x="329.1666666666667" y="801.8709536307961" text-anchor="middle" style="font-family: 'DejaVu Sans'; font-size: 14px; fill: rgb(128, 128, 128); opacity: 1; font-weight: normal; white-space: pre;">Number of stimulation pulses</text></g><g class="g-ytitle"><text class="ytitle" transform="rotate(-90,24.270341207349077,386.80555555555554)" x="24.270341207349077" y="386.80555555555554" text-anchor="middle" style="font-family: 'DejaVu Sans'; font-size: 14px; fill: rgb(128, 128, 128); opacity: 1; font-weight: normal; white-space: pre;">Scaled normalized response integral</text></g></g></svg>